<svg height="150" viewBox="0 0 150 150" width="150" xmlns="http://www.w3.org/2000/svg" xmlns:xlink="http://www.w3.org/1999/xlink"><linearGradient id="a" x1="50.000172%" x2="50.000172%" y1="100%" y2="-.000344%"><stop offset="0" stop-color="#b8233d"/><stop offset="1" stop-color="#fb644b"/></linearGradient><mask id="b" fill="#fff"><path d="m59.5006634.25032221c-32.8620607 0-59.5006634 26.75191139-59.5006634 59.75242019 0 33.0018412 26.6386027 59.7537526 59.5006634 59.7537526 32.8607339 0 59.4993366-26.7519114 59.4993366-59.7537526 0-33.0005088-26.6386027-59.75242019-59.4993366-59.75242019z" fill="#fff" fill-rule="evenodd"/></mask><g fill="none" fill-rule="evenodd"><path d="m59.5006634.25032221c-32.8620607 0-59.5006634 26.75191139-59.5006634 59.75242019 0 33.0018412 26.6386027 59.7537526 59.5006634 59.7537526 32.8607339 0 59.4993366-26.7519114 59.4993366-59.7537526 0-33.0005088-26.6386027-59.75242019-59.4993366-59.75242019z" fill="url(#a)" mask="url(#b)" transform="translate(16 15)"/><g transform="translate(26 40)"><path d="m77.3781125 71.6379055-49.5757569-25.4788364 6.2302291-27.54 58.0322709-18.21403637z" fill="#00e2ba"/><path d="m48.2013882 14.9612727 5.2730278 43.0029818-41.0572709 7.7609455-5.83684024-57.32181818z" fill="#ffaf00"/><path d="m6.58057431 8.40364364-5.96752084 8.69498186 7.85632639 51.956509 3.94803474-3.3303272z" fill="#ff9800"/><path d="m8.46951458 69.0548727 45.00530552-11.0873454-41.0572708 7.7576727z" fill="#e96600"/><path d="m31.2081333 37.0735855-7.9169514-.0072-1.2865972-23.4353455 4.1002709.6538909.2916736 6.2155636.6769791.0792.5281111-4.0653818 3.5277014.5138182-.7847569 6.5068364-3.8227431-.3744.5368681 11.4192 4.0551389.0746182zm-13.5395833-.0124364-.2384583-3.5934546-5.1888264 2.5193455-.2283542-2.9572364 5.21375-2.6378181-.5429305-8.1955637-5.6253264-.5511273-.2283542-2.9572363 5.6643958.6591273-.4418889-6.6652364 4.4087848.7029818 1.370125 23.6801455z" fill="#153fd9"/><path d="m27.6611667 47.0525236-8.8108334.7036364.230375 3.5273455 8.7367361-.9026182zm-1.9750278 5.8824.3812639 7.3813091-3.9318681.6722182-.4553611-7.5744-6.7947153.8116364-.6439722-8.6445818 17.0228264-1.0813091.303125 7.7328zm-12.6288611-8.8736727-.1966945-2.5612364 8.063125-.2984727-.5321527-1.8039273 4.2733888-.1060363.5739167 1.7502545 6.6249653-.2454545.0855486 2.2568727z" fill="#153fd9"/><path d="m17.3915611 56.3919055c-.4546875.2055272-.7995764.5655272-1.0757569.9831272-.6001875.9065455-.6237639 1.7554909-.6237639 1.7554909-.1690764-.6231272-.084875-1.4472.3536458-2.1946909.2640556-.4496727.7207639-.8594182 1.1101111-1.0125818.457382-.18.6143334.2978182.2357639.4686546m-.1185555-1.0610182c-1.4624098.3658909-2.5516389 1.9721454-2.3717848 3.6792.1933264 1.8314182 1.7406111 2.9605091 3.379507 2.4159272 1.5722083-.5223272 2.4829305-2.3524363 2.1151389-4.0012363-.3435417-1.5434182-1.7129931-2.4466909-3.1228611-2.0938909" fill="#153fd9"/><path d="m29.3172396 54.77472c-.3886736.1852364-.687757.5144727-.9289097.8973818-.5247431.8312727-.5604445 1.6154182-.5604445 1.6154182-.1320278-.5773091-.0451319-1.3385455.3395-2.0238545.2317222-.4130182.6257847-.7867637.9585486-.9248728.3900209-.1616727.5146389.2821091.1913056.4359273m-.081507-.9818182c-1.2448333.324-2.194625 1.7960727-2.0740486 3.3741818.130007 1.6952728 1.4192986 2.7582546 2.8190625 2.2752 1.3445278-.4640727 2.1521875-2.1495272 1.8685973-3.6811636-.2654028-1.4321455-1.4118889-2.2810909-2.6136112-1.9682182" fill="#153fd9"/><path d="m58.4107729 32.1682909 2.6284306 1.4746909.7726319 4.7788364-3.4259861-1.5964364z" fill="#ff9800"/><path d="m33.9292528 43.7206255 2.1535347 1.1945454.0033681-1.1251636z" fill="#e96600"/><path d="m34.555509 37.3992218 1.9932153 1.1022546.5840208-1.1644364z" fill="#e96600"/><path d="m54.6319493 36.9159709 3.0507847 1.5676364 4.1292361-.0621818-3.4259861-1.5957819z" fill="#e96600"/><path d="m51.3026937 30.9554182-.0053888 1.6265454 8.4794166-.2814545-2.9308819-1.7371636z" fill="#e96600"/><path d="m51.3204097 25.6583127 4.5105-.5033454 3.0898542 2.2516363-7.5686945.1597091z" fill="#e96600"/><path d="m58.0532875 14.0941309 3.7890625 2.4257455-.2088194 8.1661091-3.6233542-2.4578182z" fill="#ff9800"/><path d="m48.2033417 13.6636364 3.0218194 1.7345454-2.9928542.5714182z" fill="#ff9800"/><path d="m55.8433042 22.5128291 3.2575833 2.2843636 2.5327778-.1112727-3.6233542-2.4578182z" fill="#e96600"/><path d="m55.8433042 22.5128291 3.2575833 2.2843636-.1805278 2.6096728-3.0891805-2.2516364z" fill="#ff9800"/><path d="m51.3204097 25.6583127 2.3340625 1.3483637-2.3394514.2323636z" fill="#ff9800"/><path d="m56.8649028 26.6871273 3.7856944 2.5749818-.8736736 3.0384-2.9308819-1.7371636z" fill="#ff9800"/><path d="m51.3026937 30.9554182-.0053888 1.6265454 2.9093263-.1688727z" fill="#ff9800"/><path d="m54.6319493 36.9159709 3.0507847 1.5676364 4.7428959 7.3341818-3.4967153-1.3464z" fill="#ff9800"/><path d="m56.1166556 44.3819127 2.7200416 1.3339637 3.589.1014545-3.4967153-1.3457454z" fill="#e96600"/><path d="m56.1166556 44.3819127 2.7200416 1.3339637-.0107778 8.5614545-2.7442916-2.4774545z" fill="#ff9800"/><path d="m51.1191347 51.3677455 7.8927014 7.4415272 3.4246389 2.9009455-8.3736597-10.0865455z" fill="#ff9800"/><path d="m51.1191347 51.3677455 4.813625 2.5317818 2.8931597.3776727-2.7442916-2.4774545z" fill="#e96600"/><path d="m47.9991028 43.9763564 2.7079166 2.0899636-.0767916 4.8082909-1.6981736-1.5741818-.94575-.0687273z" fill="#ff9800"/><path d="m49.0499361 57.4520727 2.7570903 2.7268364 10.6295833 1.5309818-3.4246389-2.9002909z" fill="#e96600"/><path d="m33.9719597 55.3973236 4.5778611 2.6319273 6.8486042.8031273-3.5580139-2.3629091z" fill="#e96600"/><path d="m45.3986944 58.8321164 1.9979306-3.0318546-2.1171597-2.1141818-3.4387847 2.7837818z" fill="#ff9800"/><path d="m36.0938347 50.2373455 2.2256111 1.5610909 1.488007-1.2318546z" fill="#e96600"/><path d="m40.4143764 42.77304 2.3906458 1.0446545-.003368 4.1923637-2.3879514 2.0114182z" fill="#ff9800"/><g fill="#e96600"><path d="m40.4143764 42.77304 10.2402361.2297455.0518681 3.0639272-2.7072431-2.0906182-5.1942153-.1584z"/><path d="m42.2783257 37.2132-.6783264 1.5159273 7.6980278-.0890182-.7820625-1.5768z"/><path d="m35.5067153 32.0727273 1.7864166 1.3234909 2.5617431-.1485818v-1.4825455z"/><path d="m36.2493715 27.3404291 1.3600209 1.2613091 2.2451458-.2238546v-1.44z"/><path d="m44.156084 31.4610545-.0020208 1.5368728 2.3098125-.1348364.003368-1.5656727z"/><path d="m44.1620118 26.4573164 2.3152014-.2585455-.0033681 1.5211636-2.3131805.2304z"/><path d="m51.3388667 20.0885891 1.843-.2847273-.0067361 1.8157091-1.8423264.2598546z"/><path d="m44.1686132 21.1969964 2.3178958-.3580364-.0026944 1.7227636-2.3172222.3259637z"/><path d="m38.3166167 22.1017745 1.5378541-.2376v1.6311273l-1.5371805.216z"/></g><path d="m51.3388667 20.0885891 1.8362639 1.5309818-1.8423264.2598546z" fill="#ff9800"/><path d="m44.1686132 21.1969964-.0020208 1.6906909 2.3172222-.3259637z" fill="#ff9800"/><path d="m38.3166167 22.1017745 1.5378541 1.3935273-1.5371805.216z" fill="#ff9800"/><path d="m44.1620118 26.4573164 2.3118333 1.2626181-2.3131805.2304z" fill="#ff9800"/><path d="m44.156084 31.4610545-.0020208 1.5368728 2.3098125-.1348364z" fill="#ff9800"/><path d="m42.2783257 37.2132-.6783264 1.5159273 2.8682361-.0327273z" fill="#ff9800"/><path d="m53.1817319 19.8038618-1.843.2847273-.0060625 1.7908364 1.8423264-.2598546zm-6.7145555 11.4938182-2.3111597.1636364-.0020209 1.5362181 2.3098125-.1341818zm.0094305-5.0989091-2.3145277.2585455-.0020209 1.4930181 2.3138542-.2304zm.0101042-5.3600727-2.3178958.3580363-.0020209 1.6913455 2.3172223-.3259636zm2.0289167 16.2248727-6.2376389.1498909-.6776528 1.5159273 7.6973542-.0890182zm2.1393889 5.9386909-10.2409098-.2290909-.0006736 7.2484364 2.388625-2.0114182.0033681-4.1923636 5.1935417.1584-.012125 5.2553454.9450763.0687273 1.6981737 1.5741818zm-10.8006806-21.1385454-1.5378542.2382545.0013473 1.6095273 1.5365069-.216zm9.1954653 35.5882909-3.7702014-3.7656-3.4387847 2.7831272-7.869125-1.0721454 5.8361666-4.8305455-3.7142916-.3292363-.0074097-6.4472728-2.1569028-.0693818 3.2036944-6.3837818-2.5772361.0621818-.0067361-3.8428363 5.3060347-.3089455-.0006736-1.4825454-4.3474861.3076363-.0047153-3.2616 4.3522014-.4326545v-1.4406546l-3.6051667.4025455-.0020208-2.1639273-1.5560417.2029091-.0107777-6.8216727 8.0186666-1.5309818.0586042-2.2195637 5.4454722-1.1434909.0289653 2.3059636 9.82125-1.8752727-.0431111 8.1340364-2.167007.2847273-.012125 2.6417454-4.5105.5033455-.0053888 1.5807272 5.5498819-.5517818-.0195347 3.8762182-5.5431459.3920727-.0047152 1.6265455 7.1133333-.4136727-.0249236 4.6570909-3.7540347.0909818 4.2969652 7.5554182-2.8123263-.0896728-.0350278 7.4173091-4.9624931-.4313454 7.8927014 7.4415272z" fill="#153fd9"/><path d="m92.1564667 18.8306836 3.7749166 3.8061819-26.6938611 2.7922909 1.0589167-3.4893819z" fill="#e96600"/><path d="m73.7196632 9.61108364 6.1083055 3.68247276-.4344791 1.2816-7.392882 1.3719272z" fill="#ff9800"/><path d="m92.2492229 12.19032 4.5994167 4.5824727-.9167847 5.8640728-3.7755903-3.8061819z" fill="#ff9800"/><path d="m70.296641 21.9394473 5.4178541 2.8125818-4.4882708 10.3699636-4.6593681.1924364z" fill="#ff9800"/><path d="m78.423759 23.7314618 5.3060347 2.4237818-.6628333 8.4776728-4.7523264.1963636z" fill="#ff9800"/><path d="m90.7947618 34.3131709 4.7078681 3.5456727-.9780834 6.2973819-3.8160069-3.5352z" fill="#ff9800"/><path d="m78.2579833 40.6176218 3.3357223 3.1437818 12.9306388.3946909-3.8160069-3.5352z" fill="#e96600"/><path d="m78.2579833 40.6176218 3.3357223 3.1437818.015493 2.8282909-3.4084722-.1446545z" fill="#ff9800"/><path d="m92.0380458 47.0294836 4.2127639 3.6458182-.8467291 6.5578909-3.4549514-3.8860363z" fill="#ff9800"/><path d="m78.1441431 52.1929964 4.0995972 3.9063272 13.1603403 1.1336728-3.4549514-3.8860364z" fill="#e96600"/><path d="m78.1441431 52.1929964 4.0995972 3.9063272-.5321528 8.6773091-3.6610764-3.0298909z" fill="#ff9800"/><path d="m71.0308097 60.6764945 3.0171042 2.7811637 7.6636736 1.3189091-3.6610764-3.0298909z" fill="#e96600"/><path d="m59.4975097 50.6336727 3.7850209 3.9351273 7.7903125.6578182.027618-3.6229091z" fill="#e96600"/><path d="m60.5194451 40.6125164 3.3229236 3.0128727 7.3187848-.0085091.0235764-3.0017455z" fill="#e96600"/><path d="m78.1441431 52.1929964-.093632 9.5537454-7.0197014-1.0701818.069382-9.0726545-11.6029514-.9700364.0208819-4.9771636 11.6238334.490909.0424375-5.5322181-10.6652848-.0026182.0269445-6.0401455 3.140375-11.6928-3.673875.5223273.0222291-5.2350545 5.1457153-.9549819 1.5041736-5.9812363 7.0351945-1.62000003-1.7197292 6.33600003 20.24875-3.7564364-.0922847 6.6403636-21.8600278 3.1084364-3.7297847 13.3749818 4.659368-.1924363.0808334-10.5290182 7.1167014-.8613818-.109125 11.0978181 12.479993-.5157818-.0862222 6.3078546-12.4503542-.0039273-.0572569 5.8280727 13.8373194.5838546-.0889166 6.3176727z" fill="#153fd9"/></g></g></svg>