<?xml version="1.0" encoding="UTF-8"?>
<svg width="150px" height="150px" viewBox="0 0 150 150" version="1.1" xmlns="http://www.w3.org/2000/svg" xmlns:xlink="http://www.w3.org/1999/xlink">
    <title>PK10</title>
    <defs>
        <ellipse id="path-1" cx="75.5" cy="74.5" rx="59.5" ry="59"></ellipse>
        <path d="M60.0003322,0.948487501 C26.8626039,0.948487501 0.000666666667,27.7666165 0.000666666667,60.8488097 L0.000666666667,60.8488097 C0.000666666667,93.9316708 26.8626039,120.750468 60.0003322,120.750468 L60.0003322,120.750468 C93.1380604,120.750468 120.000667,93.9316708 120.000667,60.8488097 L120.000667,60.8488097 C120.000667,27.7666165 93.1380604,0.948487501 60.0003322,0.948487501 Z" id="path-3"></path>
        <linearGradient x1="49.9998934%" y1="100%" x2="49.9998934%" y2="-0.000344193203%" id="linearGradient-5">
            <stop stop-color="#B8233D" offset="0%"></stop>
            <stop stop-color="#FB644B" offset="100%"></stop>
        </linearGradient>
    </defs>
    <g id="Page-1" stroke="none" stroke-width="1" fill="none" fill-rule="evenodd">
        <g id="Lottery_PK10-EN" transform="translate(-645.000000, -223.000000)">
            <g id="Bitmap" transform="translate(645.000000, 223.000000)">
                <rect id="Rectangle" x="0" y="0" width="150" height="150"></rect>
                <mask id="mask-2" fill="white">
                    <use xlink:href="#path-1"></use>
                </mask>
                <use id="Mask" fill="#D8D8D8" xlink:href="#path-1"></use>
                <g id="Group-33-Copy" mask="url(#mask-2)">
                    <g transform="translate(15.000000, 14.000000)">
                        <g id="Group-3">
                            <mask id="mask-4" fill="white">
                                <use xlink:href="#path-3"></use>
                            </mask>
                            <g id="Clip-2"></g>
                            <path d="M60.0003322,0.948487501 C26.8626039,0.948487501 0.000666666667,27.7666165 0.000666666667,60.8488097 L0.000666666667,60.8488097 C0.000666666667,93.9316708 26.8626039,120.750468 60.0003322,120.750468 L60.0003322,120.750468 C93.1380604,120.750468 120.000667,93.9316708 120.000667,60.8488097 L120.000667,60.8488097 C120.000667,27.7666165 93.1380604,0.948487501 60.0003322,0.948487501 Z" id="Fill-1" fill="url(#linearGradient-5)" mask="url(#mask-4)"></path>
                        </g>
                        <g id="Group-32" transform="translate(5.000000, 33.000000)">
                            <polygon id="Fill-4" fill="#00E2BA" points="43.8635159 24.3616358 104.128166 0.625888421 87.9976242 62.4746463 41.8210318 43.6071411"></polygon>
                            <polygon id="Fill-6" fill="#E96600" points="45.7288376 22.5654726 48.7196656 26.5503884 53.3731051 21.8207463 53.9823726 16.6189358"></polygon>
                            <polygon id="Fill-8" fill="#FF9800" points="65.6671338 3.98538 68.4225478 6.15921158 67.2327707 56.9789905 60.4579299 53.1485905"></polygon>
                            <polygon id="Fill-10" fill="#E96600" points="49.9936433 53.8730905 57.4152038 57.6590589 67.2323694 56.9793221 60.4575287 53.1482589"></polygon>
                            <polygon id="Fill-12" fill="#FFAF00" points="54.9252994 19.9180137 56.6012866 49.47894 56.6012866 49.4835821 10.7029108 54.1382874 5.98526752 12.2664979"></polygon>
                            <polygon id="Fill-14" fill="#FF9800" points="5.98546815 12.2667632 0.101455414 24.8170263 8.01591401 58.7627526 10.7031115 54.1385526"></polygon>
                            <polygon id="Fill-16" fill="#E96600" points="8.01598089 58.7629516 56.6008854 49.4833832 10.7031783 54.1380884"></polygon>
                            <path d="M24.197551,27.0505421 C23.8999395,26.0127 23.4257675,25.1791105 22.7703535,24.5464579 C22.1095892,23.9085 21.3444936,23.5371316 20.4703854,23.4356684 L18.3282516,23.1876474 L19.4658631,31.7072368 L21.6815637,31.8146684 C22.9014363,31.8730263 23.7300669,31.4698263 24.1828376,30.6097105 C24.630258,29.7595421 24.6342707,28.5764684 24.197551,27.0505421 M29.3820096,26.6281105 C29.8715637,28.3602789 30.0882516,29.8822263 30.0320732,31.2005842 C29.9745573,32.5282263 29.6816274,33.6363632 29.1465955,34.5269842 C28.6048758,35.4295421 27.8364363,36.1159105 26.8325828,36.5841 C25.8093344,37.0622368 24.5834427,37.3016368 23.1448758,37.2969947 L20.1587293,37.2863842 L21.6748758,49.2597 L14.9809586,49.8923526 L10.8471688,16.3617632 L19.800258,17.8001526 C20.7840478,17.9579842 21.7745255,18.2564053 22.7710223,18.6907737 C23.7521369,19.1191737 24.6737293,19.7040789 25.5391433,20.4435 C26.3931879,21.1743 27.1515955,22.0523211 27.818379,23.0782263 C28.4798121,24.0961737 29.0007994,25.2785842 29.3820096,26.6281105" id="Fill-18" fill="#153FD9"></path>
                            <polygon id="Fill-20" fill="#153FD9" points="41.0459713 33.4852295 48.0007166 46.4473137 43.5887102 46.8651032 37.3134554 34.7425768 37.2245064 34.7399242 38.9988057 47.3001347 34.3393471 47.7411347 30.4851115 19.9985874 35.2308439 20.7612189 36.8132006 31.78224 36.9021497 31.7868821 39.5826592 21.4615137 44.2187102 22.2069032"></polygon>
                            <path d="M94.2154299,23.2286305 C94.1498885,22.2663884 94.0295064,21.3545463 93.8549522,20.4917779 C93.6783917,19.6303358 93.4282643,18.8637253 93.1039013,18.1952621 C92.7775318,17.5267989 92.3695701,17.0135147 91.8786783,16.6547463 C91.3871178,16.2973042 90.7939013,16.1407989 90.0970223,16.18722 C88.9814809,16.2614937 88.026449,16.7979884 87.231258,17.7940516 C86.4347293,18.7907779 85.7632643,20.0660305 85.2168631,21.6211358 C84.6691242,23.1762411 84.2257166,24.9090726 83.8893153,26.8183042 C83.5515764,28.7275358 83.3061306,30.6075884 83.1523089,32.4584621 C82.9978185,34.3093358 82.9055255,36.0415042 82.8754299,37.6536411 C82.8453344,39.2671042 82.8640605,40.5775042 82.9329459,41.5841779 C82.9984873,42.54642 83.1168631,43.4476516 83.2914172,44.2872095 C83.4653025,45.1274305 83.7127548,45.8588937 84.0351115,46.4809358 C84.3574682,47.1043042 84.7520541,47.5957042 85.220207,47.9544726 C85.6883599,48.3152305 86.270207,48.4710726 86.9677548,48.4246516 C88.0351433,48.3536937 88.9681051,47.8198516 89.763965,46.8231253 C90.5598248,45.8270621 91.2439968,44.5610937 91.8164809,43.0272095 C92.388965,41.4939884 92.8430732,39.7830411 93.1814809,37.89702 C93.5205573,36.0103358 93.7787102,34.1415568 93.9559395,32.2886937 C94.1331688,30.4364937 94.2381688,28.7149358 94.2702707,27.1246832 C94.3017038,25.5357568 94.2843153,24.2372937 94.2154299,23.2286305 M100.895971,23.3652411 C100.786959,25.8573884 99.2587739,32.6885779 98.8046656,35.2264832 C98.3512261,37.7657147 83.8645701,56.1272305 82.1150159,55.3015989 C80.3641242,54.4759674 77.1940605,54.7962726 76.0738376,53.3287042 C74.9522771,51.8624621 74.106258,50.1588095 73.5331051,48.2177463 C72.9599522,46.2780095 72.6048248,44.2765989 72.464379,42.2148411 C72.3266083,40.1995042 72.3011943,37.9460937 72.3874682,35.4552726 C72.4724045,32.9651147 72.7432643,30.4391463 73.1953662,27.8773674 C73.6474682,25.3169147 74.2888376,22.8121674 75.1208121,20.3631253 C75.9521178,17.9154095 77.0562898,15.7243358 78.433328,13.7912305 C79.8096975,11.8594516 81.4763217,10.2638937 83.4338694,9.00455684 C85.3900796,7.74720947 87.7081051,7.02834632 90.3872771,6.84929368 C92.8357166,6.68549368 94.1605892,8.93824105 96.1027548,9.18493579 C97.1968949,9.32419895 101.004984,20.8724305 100.895971,23.3652411" id="Fill-22" fill="#E96600"></path>
                            <path d="M91.8165478,43.0271432 C91.3657834,44.2340905 90.8468025,45.2739221 90.2575987,46.1479642 L93.5587452,35.5699326 C93.4470573,36.3431747 93.3213248,37.1184063 93.1815478,37.8969537 C92.8431401,39.7829747 92.3883631,41.4939221 91.8165478,43.0271432 M103.711643,16.4855747 C103.705624,16.46568 103.700274,16.4457853 103.694255,16.4265537 C102.826166,13.6074695 101.03314,11.1537853 98.6241592,9.42758526 C91.3457197,4.21450105 87.7054968,3.85440632 87.7054968,3.85440632 L92.6806242,34.4684274 C90.7939682,34.8033221 87.9830446,43.8355326 88.649828,44.9595853 L73.7498599,53.5156484 C73.7498599,53.5156484 79.9756242,55.5528695 83.7857197,56.8049116 C86.9611338,57.8487221 90.4555605,57.5131642 93.3179809,55.7975747 C93.4009108,55.7478379 93.483172,55.6967747 93.5647643,55.6457116 C95.5223121,54.4109116 97.2016433,52.8259642 98.6020892,50.8915326 C100.001866,48.9577642 101.141484,46.7766379 102.020274,44.3468274 C102.899732,41.9190063 103.565847,39.43548 104.019955,36.8962484 C104.474064,34.3583432 104.756293,31.8429853 104.865306,29.3508379 C104.974318,26.8586905 104.959605,24.60528 104.823172,22.58928 C104.679382,20.4824274 104.308873,18.4471958 103.711643,16.4855747" id="Fill-24" fill="#FF9800"></path>
                            <path d="M86.5935669,19.6719158 C86.5280255,18.7096737 86.4076433,17.7978316 86.2324204,16.9350632 C86.0558599,16.0729579 85.8057325,15.3063474 85.4813694,14.6385474 C85.1556688,13.9694211 84.7470382,13.4568 84.2561465,13.0980316 C83.7652548,12.7405895 83.1720382,12.5840842 82.4744904,12.6305053 C81.358949,12.7047789 80.404586,13.2412737 79.6087261,14.2366737 C78.8128662,15.2340632 78.1414013,16.5093158 77.5943312,18.0644211 C77.0465924,19.6195263 76.6038535,21.3523579 76.2674522,23.2609263 C75.9297134,25.1708211 75.6842675,27.0508737 75.5297771,28.9010842 C75.3752866,30.7526211 75.2829936,32.4847895 75.2535669,34.0969263 C75.2228025,35.7103895 75.2421975,37.0207895 75.310414,38.0274632 C75.3766242,38.9897053 75.495,39.8909368 75.6695541,40.7298316 C75.8427707,41.5707158 76.0908917,42.3015158 76.4132484,42.9242211 C76.7356051,43.5469263 77.1301911,44.0389895 77.5983439,44.3977579 C78.0664968,44.7578526 78.6476752,44.9143579 79.3452229,44.8679368 C80.4132803,44.7963158 81.3455732,44.2631368 82.1421019,43.2657474 C82.937293,42.2703474 83.6221338,41.0043789 84.193949,39.4704947 C84.7664331,37.9372737 85.2212102,36.2263263 85.5596178,34.3403053 C85.8980255,32.4536211 86.1561783,30.5848421 86.3334076,28.7319789 C86.5113057,26.8797789 86.6156369,25.1582211 86.6484076,23.5679684 C86.6798408,21.9790421 86.6624522,20.6799158 86.5935669,19.6719158 M97.2005732,19.0319684 C97.3376752,21.0486316 97.3517197,23.3020421 97.242707,25.7935263 C97.1336943,28.2863368 96.8521338,30.8016947 96.3980255,33.3396 C95.9439172,35.8788316 95.2771338,38.3623579 94.3983439,40.7901789 C93.5188854,43.2193263 92.3792675,45.4011158 90.9801592,47.3342211 C89.5797134,49.2693158 87.9003822,50.8536 85.9421656,52.0890632 C83.983949,53.3245263 81.6886624,54.0301263 79.0556369,54.2058632 C76.6058599,54.3696632 74.5071975,54.0374211 72.7576433,53.2117895 C71.0067516,52.3861579 69.5715287,51.2395579 68.4513057,49.7719895 C67.330414,48.3057474 66.4837261,46.6020947 65.911242,44.6610316 C65.3380892,42.7212947 64.982293,40.7198842 64.8425159,38.6581263 C64.7047452,36.6427895 64.6786624,34.3893789 64.7649363,31.8985579 C64.8505414,29.4084 65.1207325,26.8824316 65.5728344,24.3206526 C66.0256051,21.7602 66.6669745,19.2554526 67.4982803,16.8064105 C68.329586,14.3586947 69.4344268,12.1676211 70.8107962,10.2345158 C72.1878344,8.30207368 73.8544586,6.70717895 75.8113376,5.44784211 C77.7675478,4.19049474 80.0855732,3.47096842 82.765414,3.29191579 C85.2138535,3.12877895 87.3245541,3.46035789 89.0981847,4.284 C90.8711465,5.10963158 92.3304459,6.26617895 93.475414,7.75364211 C94.621051,9.24176842 95.4924841,10.9666421 96.0897134,12.9289263 C96.6869427,14.8905474 97.0574522,16.9257789 97.2005732,19.0319684" id="Fill-26" fill="#153FD9"></path>
                            <polygon id="Fill-28" fill="#153FD9" points="60.4807357 53.1526358 49.947965 53.8575726 53.9533471 16.5907516 45.7258949 22.5260147 41.7873917 14.78232 56.5442389 4.54448842 65.6919459 3.93239368"></polygon>
                            <polygon id="Fill-30" fill="#FFAF00" points="43.1078503 18.0703232 51.6422771 19.4045968 45.896035 23.1879126"></polygon>
                        </g>
                    </g>
                </g>
            </g>
        </g>
    </g>
</svg>