<?xml version="1.0" encoding="UTF-8"?>
<svg width="160px" height="55px" viewBox="0 0 160 55" version="1.1" xmlns="http://www.w3.org/2000/svg" xmlns:xlink="http://www.w3.org/1999/xlink">
    <title>logo</title>
    <defs>
        <polygon id="path-1" points="0.26653753 0.129007264 1.86343826 0.129007264 1.86343826 1.77603874 0.26653753 1.77603874"></polygon>
        <polygon id="path-3" points="0.193898305 0.289937046 1.79041162 0.289937046 1.79041162 1.937046 0.193898305 1.937046"></polygon>
    </defs>
    <g id="Symbols" stroke="none" stroke-width="1" fill="none" fill-rule="evenodd">
        <g id="navbar" transform="translate(-31.000000, -23.000000)">
            <g id="logo" transform="translate(31.000000, 23.000000)">
                <path d="M21.6402131,36.1858402 L16.0340145,21.7885521 L18.7230218,21.7885521 L18.7230218,21.9253075 L18.504523,22.1503923 C18.4673317,22.1910702 18.4378886,22.2394964 18.4189056,22.2976077 C18.4006973,22.3572688 18.3906247,22.4254528 18.3906247,22.5052591 C18.3906247,22.569569 18.395661,22.6319419 18.4045714,22.6904407 C18.4150315,22.7485521 18.4289782,22.8082131 18.4471864,22.8674867 L21.7913027,31.4675835 L26.2860242,21.5425472 L30.798954,31.3025472 L34.0113511,22.8775593 C34.0291719,22.8182857 34.0446683,22.7578499 34.0535787,22.695477 C34.0621017,22.6342663 34.0675254,22.569569 34.0675254,22.5052591 C34.0675254,22.4254528 34.058615,22.3572688 34.0392446,22.2976077 C34.0202615,22.2394964 33.9919806,22.1910702 33.9536271,22.1503923 L33.745201,21.9253075 L33.745201,21.7885521 L36.3861695,21.7885521 L30.9035545,36.1858402 L26.2488329,25.7405133 L21.6402131,36.1858402 Z" id="Fill-1" fill="#FFFFFF"></path>
                <g id="Group-5" transform="translate(25.181598, 0.258402)">
                    <mask id="mask-2" fill="white">
                        <use xlink:href="#path-1"></use>
                    </mask>
                    <g id="Clip-4"></g>
                    <path d="M1.86343826,0.95240678 C1.86343826,1.40761259 1.50585956,1.77603874 1.06498789,1.77603874 C0.62527845,1.77603874 0.26653753,1.40761259 0.26653753,0.95240678 C0.26653753,0.497200969 0.62527845,0.128774818 1.06498789,0.128774818 C1.50585956,0.128774818 1.86343826,0.497200969 1.86343826,0.95240678" id="Fill-3" fill="#FFFFFF" mask="url(#mask-2)"></path>
                </g>
                <path d="M36.1215303,4.82308959 C36.1215303,5.2782954 35.7639516,5.64672155 35.3226925,5.64672155 C34.8822082,5.64672155 34.5246295,5.2782954 34.5246295,4.82308959 C34.5246295,4.36827119 34.8822082,3.99984504 35.3226925,3.99984504 C35.7639516,3.99984504 36.1215303,4.36827119 36.1215303,4.82308959" id="Fill-6" fill="#FFFFFF"></path>
                <path d="M45.0028087,8.92040678 C45.0028087,9.37522518 44.6456174,9.74365133 44.2043584,9.74365133 C43.7638741,9.74365133 43.4062954,9.37522518 43.4062954,8.92040678 C43.4062954,8.46520097 43.7638741,8.09677482 44.2043584,8.09677482 C44.6456174,8.09677482 45.0028087,8.46520097 45.0028087,8.92040678" id="Fill-8" fill="#FFFFFF"></path>
                <path d="M48.9461308,18.0994092 C48.9461308,18.554615 48.5889395,18.9230412 48.1476804,18.9230412 C47.7071961,18.9230412 47.3496174,18.554615 47.3496174,18.0994092 C47.3496174,17.6445908 47.7071961,17.2761646 48.1476804,17.2761646 C48.5889395,17.2761646 48.9461308,17.6445908 48.9461308,18.0994092" id="Fill-10" fill="#FFFFFF"></path>
                <path d="M52.4199516,27.478586 C52.4199516,27.9337918 52.0623729,28.3022179 51.6215012,28.3022179 C51.1806295,28.3022179 50.8234383,27.9337918 50.8234383,27.478586 C50.8234383,27.0237676 51.1806295,26.6553414 51.6215012,26.6553414 C52.0623729,26.6553414 52.4199516,27.0237676 52.4199516,27.478586" id="Fill-12" fill="#FFFFFF"></path>
                <path d="M48.9200581,36.8479225 C48.9200581,37.3031283 48.5628668,37.6715545 48.1216077,37.6715545 C47.6811235,37.6715545 47.3235448,37.3031283 47.3235448,36.8479225 C47.3235448,36.3927167 47.6811235,36.0242906 48.1216077,36.0242906 C48.5628668,36.0242906 48.9200581,36.3927167 48.9200581,36.8479225" id="Fill-14" fill="#FFFFFF"></path>
                <path d="M44.9513608,46.0159613 C44.9513608,46.4711671 44.5937821,46.8395932 44.1529104,46.8395932 C43.7120387,46.8395932 43.3548475,46.4711671 43.3548475,46.0159613 C43.3548475,45.5607554 43.7120387,45.1927167 44.1529104,45.1927167 C44.5937821,45.1927167 44.9513608,45.5607554 44.9513608,46.0159613" id="Fill-16" fill="#FFFFFF"></path>
                <path d="M36.0583438,50.0860436 C36.0583438,50.5412494 35.7007651,50.9096755 35.2598935,50.9096755 C34.8194092,50.9096755 34.4618305,50.5412494 34.4618305,50.0860436 C34.4618305,49.6308378 34.8194092,49.262799 35.2598935,49.262799 C35.7007651,49.262799 36.0583438,49.6308378 36.0583438,50.0860436" id="Fill-18" fill="#FFFFFF"></path>
                <path d="M42.3299177,11.672368 C42.3299177,12.1271864 41.9727264,12.4956126 41.5314673,12.4956126 C41.0909831,12.4956126 40.7334044,12.1271864 40.7334044,11.672368 C40.7334044,11.2171622 41.0909831,10.8487361 41.5314673,10.8487361 C41.9727264,10.8487361 42.3299177,11.2171622 42.3299177,11.672368" id="Fill-20" fill="#FFFFFF"></path>
                <path d="M45.1991864,17.931816 C45.1991864,18.3866344 44.8416077,18.7550605 44.4007361,18.7550605 C43.9598644,18.7550605 43.6034479,18.3866344 43.6034479,17.931816 C43.6034479,17.4766102 43.9598644,17.108184 44.4007361,17.108184 C44.8416077,17.108184 45.1991864,17.4766102 45.1991864,17.931816" id="Fill-22" fill="#FFFFFF"></path>
                <path d="M46.4037579,20.9459758 C46.4037579,21.4007942 46.0465666,21.7692203 45.6053075,21.7692203 C45.1648232,21.7692203 44.8072446,21.4007942 44.8072446,20.9459758 C44.8072446,20.49077 45.1648232,20.1223438 45.6053075,20.1223438 C46.0465666,20.1223438 46.4037579,20.49077 46.4037579,20.9459758" id="Fill-24" fill="#FFFFFF"></path>
                <path d="M48.6446102,27.4736659 C48.6446102,27.9284843 48.2874189,28.2969104 47.8461598,28.2969104 C47.4056755,28.2969104 47.0492591,27.9284843 47.0492591,27.4736659 C47.0492591,27.01846 47.4056755,26.6500339 47.8461598,26.6500339 C48.2874189,26.6500339 48.6446102,27.01846 48.6446102,27.4736659" id="Fill-26" fill="#FFFFFF"></path>
                <path d="M46.3856271,33.9938015 C46.3856271,34.4490073 46.0280484,34.8174334 45.5871768,34.8174334 C45.1463051,34.8174334 44.7891138,34.4490073 44.7891138,33.9938015 C44.7891138,33.5389831 45.1463051,33.1705569 45.5871768,33.1705569 C46.0280484,33.1705569 46.3856271,33.5389831 46.3856271,33.9938015" id="Fill-28" fill="#FFFFFF"></path>
                <path d="M45.1723002,37.0045521 C45.1723002,37.4597579 44.815109,37.828184 44.3738499,37.828184 C43.9333656,37.828184 43.5757869,37.4597579 43.5757869,37.0045521 C43.5757869,36.5497337 43.9333656,36.1813075 44.3738499,36.1813075 C44.815109,36.1813075 45.1723002,36.5497337 45.1723002,37.0045521" id="Fill-30" fill="#FFFFFF"></path>
                <path d="M42.2852881,43.2560581 C42.2852881,43.7112639 41.9280969,44.0796901 41.4868378,44.0796901 C41.0463535,44.0796901 40.6887748,43.7112639 40.6887748,43.2560581 C40.6887748,42.8012397 41.0463535,42.4328136 41.4868378,42.4328136 C41.9280969,42.4328136 42.2852881,42.8012397 42.2852881,43.2560581" id="Fill-32" fill="#FFFFFF"></path>
                <path d="M36.2210557,46.2183826 C36.2210557,46.673201 35.863477,47.0416271 35.4226053,47.0416271 C34.9821211,47.0416271 34.6245424,46.673201 34.6245424,46.2183826 C34.6245424,45.7631768 34.9821211,45.3947506 35.4226053,45.3947506 C35.863477,45.3947506 36.2210557,45.7631768 36.2210557,46.2183826" id="Fill-34" fill="#FFFFFF"></path>
                <path d="M33.3011138,47.46154 C33.3011138,47.9163584 32.9435351,48.2847845 32.5026634,48.2847845 C32.0617918,48.2847845 31.7046005,47.9163584 31.7046005,47.46154 C31.7046005,47.0063341 32.0617918,46.637908 32.5026634,46.637908 C32.9435351,46.637908 33.3011138,47.0063341 33.3011138,47.46154" id="Fill-36" fill="#FFFFFF"></path>
                <path d="M33.356707,7.43961259 C33.356707,7.8948184 32.9991283,8.26285714 32.5582567,8.26285714 C32.117385,8.26285714 31.7601937,7.8948184 31.7601937,7.43961259 C31.7601937,6.98440678 32.117385,6.61598063 32.5582567,6.61598063 C32.9991283,6.61598063 33.356707,6.98440678 33.356707,7.43961259" id="Fill-38" fill="#FFFFFF"></path>
                <path d="M36.2736271,8.69148668 C36.2736271,9.14669249 35.9160484,9.51511864 35.4751768,9.51511864 C35.0343051,9.51511864 34.6771138,9.14669249 34.6771138,8.69148668 C34.6771138,8.23666828 35.0343051,7.86824213 35.4751768,7.86824213 C35.9160484,7.86824213 36.2736271,8.23666828 36.2736271,8.69148668" id="Fill-40" fill="#FFFFFF"></path>
                <path d="M17.7960291,8.66463923 C17.7960291,9.11945763 17.4384504,9.48788378 16.9975787,9.48788378 C16.556707,9.48788378 16.1991283,9.11945763 16.1991283,8.66463923 C16.1991283,8.20943341 16.556707,7.84100726 16.9975787,7.84100726 C17.4384504,7.84100726 17.7960291,8.20943341 17.7960291,8.66463923" id="Fill-42" fill="#FFFFFF"></path>
                <path d="M11.7317966,11.6265763 C11.7317966,12.0813947 11.3742179,12.4498208 10.9329588,12.4498208 C10.4924746,12.4498208 10.1348959,12.0813947 10.1348959,11.6265763 C10.1348959,11.1713705 10.4924746,10.8029443 10.9329588,10.8029443 C11.3742179,10.8029443 11.7317966,11.1713705 11.7317966,11.6265763" id="Fill-44" fill="#FFFFFF"></path>
                <path d="M9.06533656,8.86667312 C9.06533656,9.32149153 8.70775787,9.68991768 8.2668862,9.68991768 C7.82601453,9.68991768 7.46882324,9.32149153 7.46882324,8.86667312 C7.46882324,8.41146731 7.82601453,8.04304116 8.2668862,8.04304116 C8.70775787,8.04304116 9.06533656,8.41146731 9.06533656,8.86667312" id="Fill-46" fill="#FFFFFF"></path>
                <path d="M5.09663923,18.0347119 C5.09663923,18.4899177 4.73944794,18.8579564 4.29818886,18.8579564 C3.8577046,18.8579564 3.50012591,18.4899177 3.50012591,18.0347119 C3.50012591,17.5795061 3.8577046,17.2110799 4.29818886,17.2110799 C4.73944794,17.2110799 5.09663923,17.5795061 5.09663923,18.0347119" id="Fill-48" fill="#FFFFFF"></path>
                <path d="M8.84435835,17.8777337 C8.84435835,18.3329395 8.48716707,18.7013656 8.04590799,18.7013656 C7.60542373,18.7013656 7.24784504,18.3329395 7.24784504,17.8777337 C7.24784504,17.4229153 7.60542373,17.0544891 8.04590799,17.0544891 C8.48716707,17.0544891 8.84435835,17.4229153 8.84435835,17.8777337" id="Fill-50" fill="#FFFFFF"></path>
                <path d="M7.63145763,20.8884455 C7.63145763,21.3436513 7.27387893,21.7116901 6.83300726,21.7116901 C6.39213559,21.7116901 6.03494431,21.3436513 6.03494431,20.8884455 C6.03494431,20.4332397 6.39213559,20.0648136 6.83300726,20.0648136 C7.27387893,20.0648136 7.63145763,20.4332397 7.63145763,20.8884455" id="Fill-52" fill="#FFFFFF"></path>
                <path d="M5.37208717,27.4089685 C5.37208717,27.8641743 5.01450847,28.2326005 4.5736368,28.2326005 C4.13315254,28.2326005 3.77557385,27.8641743 3.77557385,27.4089685 C3.77557385,26.9541501 4.13315254,26.585724 4.5736368,26.585724 C5.01450847,26.585724 5.37208717,26.9541501 5.37208717,27.4089685" id="Fill-54" fill="#FFFFFF"></path>
                <path d="M1.59670702,27.4032736 C1.59670702,27.8584794 1.23912833,28.2265182 0.798256659,28.2265182 C0.357384988,28.2265182 0.0001937046,27.8584794 0.0001937046,27.4032736 C0.0001937046,26.9480678 0.357384988,26.5796416 0.798256659,26.5796416 C1.23912833,26.5796416 1.59670702,26.9480678 1.59670702,27.4032736" id="Fill-56" fill="#FFFFFF"></path>
                <path d="M5.07052785,36.7828378 C5.07052785,37.2380436 4.71294915,37.6064697 4.27207748,37.6064697 C3.83120581,37.6064697 3.47401453,37.2380436 3.47401453,36.7828378 C3.47401453,36.327632 3.83120581,35.9592058 4.27207748,35.9592058 C4.71294915,35.9592058 5.07052785,36.327632 5.07052785,36.7828378" id="Fill-58" fill="#FFFFFF"></path>
                <path d="M9.01350121,45.9622276 C9.01350121,46.4174334 8.65630993,46.7858596 8.21505085,46.7858596 C7.77456659,46.7858596 7.41698789,46.4174334 7.41698789,45.9622276 C7.41698789,45.5074092 7.77456659,45.1389831 8.21505085,45.1389831 C8.65630993,45.1389831 9.01350121,45.5074092 9.01350121,45.9622276" id="Fill-60" fill="#FFFFFF"></path>
                <path d="M17.8955157,50.0591574 C17.8955157,50.5143632 17.537937,50.8827893 17.0970654,50.8827893 C16.6561937,50.8827893 16.2990024,50.5143632 16.2990024,50.0591574 C16.2990024,49.6039516 16.6561937,49.2355254 17.0970654,49.2355254 C17.537937,49.2355254 17.8955157,49.6039516 17.8955157,50.0591574" id="Fill-62" fill="#FFFFFF"></path>
                <g id="Group-66" transform="translate(25.181598, 52.558644)">
                    <mask id="mask-4" fill="white">
                        <use xlink:href="#path-3"></use>
                    </mask>
                    <g id="Clip-65"></g>
                    <path d="M1.79041162,1.11356901 C1.79041162,1.56877482 1.43283293,1.93720097 0.991961259,1.93720097 C0.551089588,1.93720097 0.193898305,1.56877482 0.193898305,1.11356901 C0.193898305,0.658363196 0.551089588,0.289937046 0.991961259,0.289937046 C1.43283293,0.289937046 1.79041162,0.658363196 1.79041162,1.11356901" id="Fill-64" fill="#FFFFFF" mask="url(#mask-4)"></path>
                </g>
                <path d="M7.61328814,33.9362712 C7.61328814,34.391477 7.25570944,34.7599031 6.81483777,34.7599031 C6.3739661,34.7599031 6.01677482,34.391477 6.01677482,33.9362712 C6.01677482,33.4814528 6.3739661,33.1130266 6.81483777,33.1130266 C7.25570944,33.1130266 7.61328814,33.4814528 7.61328814,33.9362712" id="Fill-67" fill="#FFFFFF"></path>
                <path d="M8.81789831,36.9508184 C8.81789831,37.4056368 8.46031961,37.774063 8.01944794,37.774063 C7.57857627,37.774063 7.22138499,37.4056368 7.22138499,36.9508184 C7.22138499,36.4956126 7.57857627,36.1271864 8.01944794,36.1271864 C8.46031961,36.1271864 8.81789831,36.4956126 8.81789831,36.9508184" id="Fill-69" fill="#FFFFFF"></path>
                <path d="M11.6871283,43.2098789 C11.6871283,43.6650847 11.3295496,44.0335109 10.888678,44.0335109 C10.4481937,44.0335109 10.090615,43.6650847 10.090615,43.2098789 C10.090615,42.7550605 10.4481937,42.3866344 10.888678,42.3866344 C11.3295496,42.3866344 11.6871283,42.7550605 11.6871283,43.2098789" id="Fill-71" fill="#FFFFFF"></path>
                <path d="M17.7434189,46.1907603 C17.7434189,46.6459661 17.3862276,47.0140048 16.9449685,47.0140048 C16.5044843,47.0140048 16.1469056,46.6459661 16.1469056,46.1907603 C16.1469056,45.7355545 16.5044843,45.3671283 16.9449685,45.3671283 C17.3862276,45.3671283 17.7434189,45.7355545 17.7434189,46.1907603" id="Fill-73" fill="#FFFFFF"></path>
                <path d="M20.6599903,47.4430218 C20.6599903,47.8982276 20.302799,48.2662663 19.86154,48.2662663 C19.4210557,48.2662663 19.063477,47.8982276 19.063477,47.4430218 C19.063477,46.987816 19.4210557,46.6193898 19.86154,46.6193898 C20.302799,46.6193898 20.6599903,46.987816 20.6599903,47.4430218" id="Fill-75" fill="#FFFFFF"></path>
                <path d="M26.9769298,49.7750315 C26.9769298,50.2298499 26.6197385,50.598276 26.1784794,50.598276 C25.7379952,50.598276 25.3804165,50.2298499 25.3804165,49.7750315 C25.3804165,49.3198257 25.7379952,48.9513995 26.1784794,48.9513995 C26.6197385,48.9513995 26.9769298,49.3198257 26.9769298,49.7750315" id="Fill-77" fill="#FFFFFF"></path>
                <path d="M20.7159709,7.42105569 C20.7159709,7.87587409 20.3583923,8.24430024 19.9175206,8.24430024 C19.4766489,8.24430024 19.1194576,7.87587409 19.1194576,7.42105569 C19.1194576,6.96584988 19.4766489,6.59742373 19.9175206,6.59742373 C20.3583923,6.59742373 20.7159709,6.96584988 20.7159709,7.42105569" id="Fill-79" fill="#FFFFFF"></path>
                <path d="M17.9587022,4.7965908 C17.9587022,5.2514092 17.6011235,5.61983535 17.1598644,5.61983535 C16.7193801,5.61983535 16.3618015,5.2514092 16.3618015,4.7965908 C16.3618015,4.34138499 16.7193801,3.97295884 17.1598644,3.97295884 C17.6011235,3.97295884 17.9587022,4.34138499 17.9587022,4.7965908" id="Fill-81" fill="#FFFFFF"></path>
                <path d="M27.0393801,5.10795157 C27.0393801,5.56315738 26.6818015,5.93158354 26.2409298,5.93158354 C25.8000581,5.93158354 25.4428668,5.56315738 25.4428668,5.10795157 C25.4428668,4.65313317 25.8000581,4.28470702 26.2409298,4.28470702 C26.6818015,4.28470702 27.0393801,4.65313317 27.0393801,5.10795157" id="Fill-83" fill="#FFFFFF"></path>
                <path d="M27.2474576,8.44598547 C27.2474576,9.02283777 26.7945763,9.48966586 26.236707,9.48966586 C25.678063,9.48966586 25.2247942,9.02283777 25.2247942,8.44598547 C25.2247942,7.86913317 25.678063,7.40230508 26.236707,7.40230508 C26.7945763,7.40230508 27.2474576,7.86913317 27.2474576,8.44598547" id="Fill-85" fill="#FFFFFF"></path>
                <path d="M31.0413172,9.79548668 C31.0413172,10.372339 30.5892107,10.8391671 30.0305666,10.8391671 C29.4719225,10.8391671 29.0186538,10.372339 29.0186538,9.79548668 C29.0186538,9.21863438 29.4719225,8.7518063 30.0305666,8.7518063 C30.5892107,8.7518063 31.0413172,9.21863438 31.0413172,9.79548668" id="Fill-87" fill="#FFFFFF"></path>
                <path d="M36.65046,12.2031574 C36.65046,12.7800097 36.1987409,13.2472252 35.6400969,13.2472252 C35.0810654,13.2472252 34.628184,12.7800097 34.628184,12.2031574 C34.628184,11.6266925 35.0810654,11.159477 35.6400969,11.159477 C36.1987409,11.159477 36.65046,11.6266925 36.65046,12.2031574" id="Fill-89" fill="#FFFFFF"></path>
                <path d="M40.2525133,14.0285908 C40.2525133,14.6054431 39.799632,15.0722712 39.2417627,15.0722712 C38.6831186,15.0722712 38.2298499,14.6054431 38.2298499,14.0285908 C38.2298499,13.4517385 38.6831186,12.9849104 39.2417627,12.9849104 C39.799632,12.9849104 40.2525133,13.4517385 40.2525133,14.0285908" id="Fill-91" fill="#FFFFFF"></path>
                <path d="M42.0102276,17.7517482 C42.0102276,18.3286005 41.5585085,18.7954286 40.9998644,18.7954286 C40.4408329,18.7954286 39.9879516,18.3286005 39.9879516,17.7517482 C39.9879516,17.1748959 40.4408329,16.7076804 40.9998644,16.7076804 C41.5585085,16.7076804 42.0102276,17.1748959 42.0102276,17.7517482" id="Fill-93" fill="#FFFFFF"></path>
                <path d="M44.3275157,23.548862 C44.3275157,24.1253269 43.8746344,24.5925424 43.3171525,24.5925424 C42.7581211,24.5925424 42.3052397,24.1253269 42.3052397,23.548862 C42.3052397,22.9720097 42.7581211,22.5047942 43.3171525,22.5047942 C43.8746344,22.5047942 44.3275157,22.9720097 44.3275157,23.548862" id="Fill-95" fill="#FFFFFF"></path>
                <path d="M45.6240194,27.4687458 C45.6240194,28.0455981 45.1707506,28.5124262 44.6132688,28.5124262 C44.0542373,28.5124262 43.6013559,28.0455981 43.6013559,27.4687458 C43.6013559,26.8918935 44.0542373,26.4250654 44.6132688,26.4250654 C45.1707506,26.4250654 45.6240194,26.8918935 45.6240194,27.4687458" id="Fill-97" fill="#FFFFFF"></path>
                <path d="M44.3161646,31.3844455 C44.3161646,31.9612978 43.8640581,32.4281259 43.305414,32.4281259 C42.7463826,32.4281259 42.2935012,31.9612978 42.2935012,31.3844455 C42.2935012,30.8075932 42.7463826,30.3407651 43.305414,30.3407651 C43.8640581,30.3407651 44.3161646,30.8075932 44.3161646,31.3844455" id="Fill-99" fill="#FFFFFF"></path>
                <path d="M41.9833801,37.1743923 C41.9833801,37.7512446 41.5304988,38.21846 40.9730169,38.21846 C40.4139855,38.21846 39.9611041,37.7512446 39.9611041,37.1743923 C39.9611041,36.5979274 40.4139855,36.1307119 40.9730169,36.1307119 C41.5304988,36.1307119 41.9833801,36.5979274 41.9833801,37.1743923" id="Fill-101" fill="#FFFFFF"></path>
                <path d="M40.2158257,40.8926295 C40.2158257,41.4690944 39.7625569,41.9363099 39.2050751,41.9363099 C38.6460436,41.9363099 38.1931622,41.4690944 38.1931622,40.8926295 C38.1931622,40.3157772 38.6460436,39.8485617 39.2050751,39.8485617 C39.7625569,39.8485617 40.2158257,40.3157772 40.2158257,40.8926295" id="Fill-103" fill="#FFFFFF"></path>
                <path d="M36.6080775,42.7070993 C36.6080775,43.2839516 36.1551961,43.7511671 35.5977143,43.7511671 C35.0386828,43.7511671 34.5858015,43.2839516 34.5858015,42.7070993 C34.5858015,42.1306344 35.0386828,41.6634189 35.5977143,41.6634189 C36.1551961,41.6634189 36.6080775,42.1306344 36.6080775,42.7070993" id="Fill-105" fill="#FFFFFF"></path>
                <path d="M30.992155,45.0984988 C30.992155,45.6753511 30.5392736,46.1425666 29.9817918,46.1425666 C29.4227603,46.1425666 28.9694915,45.6753511 28.9694915,45.0984988 C28.9694915,44.5220339 29.4227603,44.0548184 29.9817918,44.0548184 C30.5392736,44.0548184 30.992155,44.5220339 30.992155,45.0984988" id="Fill-107" fill="#FFFFFF"></path>
                <path d="M27.1948475,46.4363002 C27.1948475,47.0131525 26.7427409,47.480368 26.1840969,47.480368 C25.6254528,47.480368 25.172184,47.0131525 25.172184,46.4363002 C25.172184,45.8598354 25.6254528,45.3926199 26.1840969,45.3926199 C26.7427409,45.3926199 27.1948475,45.8598354 27.1948475,46.4363002" id="Fill-109" fill="#FFFFFF"></path>
                <path d="M23.4009879,45.086799 C23.4009879,45.6636513 22.9481065,46.1304794 22.3906247,46.1304794 C21.8315932,46.1304794 21.3787119,45.6636513 21.3787119,45.086799 C21.3787119,44.5103341 21.8315932,44.0431186 22.3906247,44.0431186 C22.9481065,44.0431186 23.4009879,44.5103341 23.4009879,45.086799" id="Fill-111" fill="#FFFFFF"></path>
                <path d="M17.791845,42.6790896 C17.791845,43.2559419 17.3385763,43.7231574 16.7810944,43.7231574 C16.222063,43.7231574 15.7691816,43.2559419 15.7691816,42.6790896 C15.7691816,42.1026247 16.222063,41.6354092 16.7810944,41.6354092 C17.3385763,41.6354092 17.791845,42.1026247 17.791845,42.6790896" id="Fill-113" fill="#FFFFFF"></path>
                <path d="M14.1901792,40.8536562 C14.1901792,41.4305085 13.7380726,41.8973366 13.1794286,41.8973366 C12.6203971,41.8973366 12.1675157,41.4305085 12.1675157,40.8536562 C12.1675157,40.2779661 12.6203971,39.8099758 13.1794286,39.8099758 C13.7380726,39.8099758 14.1901792,40.2779661 14.1901792,40.8536562" id="Fill-115" fill="#FFFFFF"></path>
                <path d="M12.4320775,37.1304988 C12.4320775,37.7073511 11.9791961,38.1745666 11.4213269,38.1745666 C10.8626828,38.1745666 10.409414,37.7073511 10.409414,37.1304988 C10.409414,36.5540339 10.8626828,36.0868184 11.4213269,36.0868184 C11.9791961,36.0868184 12.4320775,36.5540339 12.4320775,37.1304988" id="Fill-117" fill="#FFFFFF"></path>
                <path d="M10.1151768,31.333385 C10.1151768,31.9102373 9.66307022,32.3774528 9.10442615,32.3774528 C8.54578208,32.3774528 8.09251332,31.9102373 8.09251332,31.333385 C8.09251332,30.7569201 8.54578208,30.2897046 9.10442615,30.2897046 C9.66307022,30.2897046 10.1151768,30.7569201 10.1151768,31.333385" id="Fill-119" fill="#FFFFFF"></path>
                <path d="M8.81902179,27.4138886 C8.81902179,27.9907409 8.36575303,28.457569 7.80827119,28.457569 C7.24923971,28.457569 6.79635835,27.9907409 6.79635835,27.4138886 C6.79635835,26.8370363 7.24923971,26.3698208 7.80827119,26.3698208 C8.36575303,26.3698208 8.81902179,26.8370363 8.81902179,27.4138886" id="Fill-121" fill="#FFFFFF"></path>
                <path d="M23.4501501,9.78374818 C23.4501501,10.3606005 22.998431,10.8274286 22.4397869,10.8274286 C21.8807554,10.8274286 21.4278741,10.3606005 21.4278741,9.78374818 C21.4278741,9.20689588 21.8807554,8.7400678 22.4397869,8.7400678 C22.998431,8.7400678 23.4501501,9.20689588 23.4501501,9.78374818" id="Fill-123" fill="#FFFFFF"></path>
                <path d="M17.834615,12.1755351 C17.834615,12.7512252 17.3813462,13.2192155 16.8238644,13.2192155 C16.2648329,13.2192155 15.8119516,12.7512252 15.8119516,12.1755351 C15.8119516,11.5986828 16.2648329,11.1314673 16.8238644,11.1314673 C17.3813462,11.1314673 17.834615,11.5986828 17.834615,12.1755351" id="Fill-125" fill="#FFFFFF"></path>
                <path d="M14.2272542,13.9896174 C14.2272542,14.5664697 13.7739855,15.0336852 13.2165036,15.0336852 C12.6578596,15.0336852 12.2045908,14.5664697 12.2045908,13.9896174 C12.2045908,13.4131525 12.6578596,12.945937 13.2165036,12.945937 C13.7739855,12.945937 14.2272542,13.4131525 14.2272542,13.9896174" id="Fill-127" fill="#FFFFFF"></path>
                <path d="M12.4589249,17.7078547 C12.4589249,18.284707 12.0060436,18.7519225 11.4485617,18.7519225 C10.8895303,18.7519225 10.4366489,18.284707 10.4366489,17.7078547 C10.4366489,17.1313898 10.8895303,16.6641743 11.4485617,16.6641743 C12.0060436,16.6641743 12.4589249,17.1313898 12.4589249,17.7078547" id="Fill-129" fill="#FFFFFF"></path>
                <path d="M10.1265278,23.4978015 C10.1265278,24.0746538 9.67325908,24.5414818 9.11577724,24.5414818 C8.55713317,24.5414818 8.10386441,24.0746538 8.10386441,23.4978015 C8.10386441,22.9213366 8.55713317,22.4541211 9.11577724,22.4541211 C9.67325908,22.4541211 10.1265278,22.9213366 10.1265278,23.4978015" id="Fill-131" fill="#FFFFFF"></path>
                <path d="M27.8285714,12.0794576 C27.8285714,12.9894818 27.113414,13.727109 26.2316707,13.727109 C25.3507022,13.727109 24.6363196,12.9894818 24.6363196,12.0794576 C24.6363196,11.169046 25.3507022,10.4314189 26.2316707,10.4314189 C27.113414,10.4314189 27.8285714,11.169046 27.8285714,12.0794576" id="Fill-133" fill="#FFFFFF"></path>
                <path d="M17.2985182,16.5634092 C17.2985182,17.4734334 16.5837482,18.2110605 15.7020048,18.2110605 C14.8206489,18.2110605 14.1062663,17.4734334 14.1062663,16.5634092 C14.1062663,15.6529976 14.8206489,14.9153705 15.7020048,14.9153705 C16.5837482,14.9153705 17.2985182,15.6529976 17.2985182,16.5634092" id="Fill-135" fill="#FFFFFF"></path>
                <path d="M12.9242809,27.4188087 C12.9242809,28.3292203 12.2095109,29.0668475 11.3277676,29.0668475 C10.446799,29.0668475 9.73202906,28.3292203 9.73202906,27.4188087 C9.73202906,26.5087845 10.446799,25.77077 11.3277676,25.77077 C12.2095109,25.77077 12.9242809,26.5087845 12.9242809,27.4188087" id="Fill-137" fill="#FFFFFF"></path>
                <path d="M38.3453753,16.5947893 C38.3453753,17.5048136 37.6306053,18.2428281 36.748862,18.2428281 C35.8678935,18.2428281 35.1531235,17.5048136 35.1531235,16.5947893 C35.1531235,15.6847651 35.8678935,14.9467506 36.748862,14.9467506 C37.6306053,14.9467506 38.3453753,15.6847651 38.3453753,16.5947893" id="Fill-139" fill="#FFFFFF"></path>
                <path d="M42.6889685,27.4634383 C42.6889685,28.3734625 41.9738111,29.111477 41.0920678,29.111477 C40.2110993,29.111477 39.4967167,28.3734625 39.4967167,27.4634383 C39.4967167,26.5530266 40.2110993,25.8153995 41.0920678,25.8153995 C41.9738111,25.8153995 42.6889685,26.5530266 42.6889685,27.4634383" id="Fill-141" fill="#FFFFFF"></path>
                <path d="M38.3147312,38.3192252 C38.3147312,39.2292494 37.5999613,39.9672639 36.7182179,39.9672639 C35.836862,39.9672639 35.1228668,39.2292494 35.1228668,38.3192252 C35.1228668,37.4088136 35.836862,36.6711864 36.7182179,36.6711864 C37.5999613,36.6711864 38.3147312,37.4088136 38.3147312,38.3192252" id="Fill-143" fill="#FFFFFF"></path>
                <path d="M27.7850654,42.8027893 C27.7850654,43.7128136 27.0702954,44.4508281 26.1893269,44.4508281 C25.3071961,44.4508281 24.5928136,43.7128136 24.5928136,42.8027893 C24.5928136,41.8923777 25.3071961,41.1547506 26.1893269,41.1547506 C27.0702954,41.1547506 27.7850654,41.8923777 27.7850654,42.8027893" id="Fill-145" fill="#FFFFFF"></path>
                <path d="M17.2678741,38.287845 C17.2678741,39.1982567 16.5531041,39.9358838 15.6713608,39.9358838 C14.7903923,39.9358838 14.0760097,39.1982567 14.0760097,38.287845 C14.0760097,37.3778208 14.7903923,36.6401937 15.6713608,36.6401937 C16.5531041,36.6401937 17.2678741,37.3778208 17.2678741,38.287845" id="Fill-147" fill="#FFFFFF"></path>
                <path d="M64.8072058,28.4402906 C65.0640581,28.4402906 65.2205714,28.4174334 65.2763584,28.3686199 C65.3305956,28.3225182 65.3588765,28.2407748 65.3588765,28.1272639 C65.3588765,27.9951574 65.3305956,27.8475545 65.2763584,27.6867797 C65.2205714,27.5248426 65.1740823,27.3784019 65.1380533,27.245908 L60.7258499,15.1203874 C60.6162131,14.7988378 60.4961162,14.5559322 60.3678838,14.3951574 C60.2384891,14.2332203 60.0459467,14.1526392 59.788707,14.1526392 L59.788707,13.8101695 L63.400523,13.8101695 L63.400523,14.1526392 C63.1614915,14.1526392 63.0003293,14.1913801 62.9178111,14.2673123 C62.8349056,14.3416949 62.7942276,14.4462954 62.7942276,14.5799516 C62.7942276,14.6934625 62.8259952,14.8213075 62.8906925,14.9642615 C62.9553898,15.1068281 63.0239613,15.2726392 63.0979564,15.4616949 L66.8194092,25.7644552 L66.8751961,25.7644552 L70.5699177,14.9212591 C70.6257046,14.7500242 70.6528232,14.6070702 70.6528232,14.495109 C70.6528232,14.2673123 70.5141308,14.1526392 70.2390702,14.1526392 L70.2390702,13.8101695 L74.0717094,13.8101695 L74.0717094,14.1526392 C73.7412494,14.1526392 73.5754383,14.2762228 73.5754383,14.5222276 C73.5754383,14.6183051 73.6025569,14.7364649 73.6583438,14.8778692 C73.7137433,15.0208232 73.7679806,15.1680387 73.8233801,15.3199031 L77.4080775,25.4235351 L77.4627022,25.4235351 L81.1303051,15.1773366 C81.167109,15.0448426 81.2035254,14.9348184 81.2411041,14.8495884 C81.2775206,14.7647458 81.2965036,14.6647942 81.2965036,14.5512833 C81.2965036,14.2851332 81.0938886,14.1526392 80.689046,14.1526392 L80.689046,13.8101695 L84.1641065,13.8101695 L84.1641065,14.1526392 C83.9250751,14.1526392 83.7503535,14.219661 83.6391671,14.352155 C83.5291429,14.4850363 83.4012978,14.7411138 83.2536949,15.1203874 L78.9243971,27.188184 C78.8318063,27.4349637 78.7593608,27.6244068 78.7047361,27.758063 C78.6489492,27.8905569 78.6206683,28.0323487 78.6206683,28.1842131 C78.6206683,28.3550605 78.8046877,28.4402906 79.1727264,28.4402906 L79.1727264,28.7827603 L75.5337918,28.7827603 L75.5337918,28.4402906 C75.7720484,28.4402906 75.9235254,28.4174334 75.9882228,28.3686199 C76.0525327,28.3225182 76.0843002,28.2512349 76.0843002,28.1559322 C76.0843002,28.0234383 76.047109,27.8669249 75.9746634,27.6867797 C75.9010557,27.5054722 75.8363584,27.339661 75.7817337,27.188184 L72.0862373,16.8284746 L72.0316126,16.8284746 L68.3372785,27.4737046 C68.3000872,27.5868281 68.2636707,27.6968523 68.226092,27.8002906 C68.1889007,27.9052785 68.1706925,28.0234383 68.1706925,28.1559322 C68.1706925,28.3449879 68.3543245,28.4402906 68.7223632,28.4402906 L68.7223632,28.7827603 L64.8072058,28.7827603 L64.8072058,28.4402906 Z" id="Fill-149" fill="#FFFFFF"></path>
                <path d="M94.9445424,13.3517482 C96.1842518,13.3517482 97.3286586,13.5249201 98.3781501,13.8685521 C99.4276416,14.2129588 100.339215,14.7251138 101.112097,15.4054044 C101.884978,16.0841453 102.486625,16.9170751 102.915099,17.9018692 C103.344736,18.8866634 103.558586,20.0178983 103.558586,21.2986731 C103.558586,22.5790605 103.344736,23.7110702 102.915099,24.6958644 C102.486625,25.681046 101.884978,26.5081646 101.112097,27.1779952 C100.339215,27.8466634 99.4276416,28.3440969 98.3781501,28.6695206 C97.3286586,28.9945569 96.1842518,29.1568814 94.9445424,29.1568814 C93.7036707,29.1568814 92.5588765,28.9945569 91.5105472,28.6695206 C90.4610557,28.3440969 89.5498692,27.8466634 88.7769879,27.1779952 C88.0041065,26.5081646 87.4036223,25.681046 86.9739855,24.6958644 C86.5443487,23.7110702 86.3304988,22.5790605 86.3304988,21.2986731 C86.3304988,20.0178983 86.5443487,18.8866634 86.9739855,17.9018692 C87.4036223,16.9170751 88.0041065,16.0841453 88.7769879,15.4054044 C89.5498692,14.7251138 90.4610557,14.2129588 91.5105472,13.8685521 C92.5588765,13.5249201 93.7036707,13.3517482 94.9445424,13.3517482 M94.9445424,15.3600775 C92.9989734,15.3600775 91.4958257,15.8857918 90.4362615,16.9376077 C89.3778596,17.9882615 88.8486586,19.4363971 88.8486586,21.2839516 C88.8486586,23.1307312 89.3778596,24.5792542 90.4362615,25.629908 C91.4958257,26.681724 92.9989734,27.206276 94.9445424,27.206276 C96.8901114,27.206276 98.3932591,26.681724 99.4528232,25.629908 C100.511225,24.5792542 101.040426,23.1307312 101.040426,21.2839516 C101.040426,19.4363971 100.511225,17.9882615 99.4528232,16.9376077 C98.3932591,15.8857918 96.8901114,15.3600775 94.9445424,15.3600775" id="Fill-151" fill="#FFFFFF"></path>
                <path d="M110.743593,27.7577918 C110.743593,27.9662179 110.789695,28.1316416 110.881511,28.2552252 C110.973714,28.3788087 111.148048,28.4400194 111.40645,28.4400194 L111.40645,28.7824891 L107.765966,28.7824891 L107.765966,28.4400194 C108.023593,28.4400194 108.198315,28.3788087 108.289743,28.2552252 C108.381559,28.1316416 108.428048,27.9662179 108.428048,27.7577918 L108.428048,14.8357579 C108.428048,14.6269443 108.381559,14.461908 108.289743,14.337937 C108.198315,14.2135787 108.023593,14.152368 107.765966,14.152368 L107.765966,13.8110605 L117.002576,13.8110605 C118.822625,13.8110605 120.127419,14.1670896 120.919671,14.8787603 C121.709598,15.5908184 122.104755,16.6197772 122.104755,17.9660242 C122.104755,19.1623438 121.801027,20.1114964 121.193956,20.812707 C120.587274,21.5154673 119.594731,21.9609879 118.216329,22.1500436 L121.69139,27.7000678 C121.892843,28.0049588 122.052455,28.2040872 122.174102,28.298615 C122.291874,28.3935303 122.490228,28.4400194 122.765288,28.4400194 L122.765288,28.7824891 L118.795506,28.7824891 L118.795506,28.4400194 C119.034538,28.4400194 119.186789,28.4218111 119.249937,28.3830702 C119.314634,28.3458789 119.346402,28.2792446 119.346402,28.1851041 C119.346402,28.070431 119.302237,27.9662179 119.209259,27.8720775 L115.818654,22.2929976 L110.743593,22.2929976 L110.743593,27.7577918 Z M116.782915,20.3571138 C117.902528,20.3571138 118.694392,20.1397772 119.15386,19.7020048 C119.613714,19.2669443 119.843835,18.6695593 119.843835,17.9102373 C119.843835,17.5309637 119.797346,17.2078644 119.70553,16.9413269 C119.613714,16.676339 119.448678,16.4539661 119.209259,16.2726586 C118.96984,16.0925133 118.642867,15.9600194 118.228726,15.8736271 C117.817685,15.7887845 117.288484,15.7469443 116.645385,15.7469443 L110.743593,15.7469443 L110.743593,20.3571138 L116.782915,20.3571138 Z" id="Fill-153" fill="#FFFFFF"></path>
                <path d="M131.037559,14.152678 C130.779157,14.152678 130.605985,14.2196998 130.513782,14.3525811 C130.421966,14.4846877 130.377027,14.6842034 130.377027,14.9495787 L130.377027,26.903477 L139.640368,26.903477 C140.284242,26.903477 140.606179,26.6191186 140.606179,26.0492397 L140.937027,26.0492397 L140.937027,29.3232349 L140.606179,29.3232349 C140.606179,28.9617821 140.284242,28.782799 139.640368,28.782799 L127.397462,28.782799 L127.397462,28.4403293 C127.655864,28.4403293 127.830586,28.3795061 127.922015,28.2555351 C128.013831,28.132339 128.06032,27.9665278 128.06032,27.7581017 L128.06032,14.835293 C128.06032,14.6268668 128.013831,14.4610557 127.922015,14.3378596 C127.830586,14.2138886 127.655864,14.152678 127.397462,14.152678 L127.397462,13.8105956 L131.037559,13.8105956 L131.037559,14.152678 Z" id="Fill-155" fill="#FFFFFF"></path>
                <path d="M144.630547,14.8355642 C144.630547,14.627138 144.58522,14.4613269 144.493404,14.3381308 C144.400039,14.2141598 144.225705,14.1529492 143.969627,14.1529492 L143.969627,13.8108668 L152.517036,13.8108668 C153.657182,13.8108668 154.680329,13.995661 155.590741,14.3664116 C156.500765,14.7356126 157.273646,15.2524165 157.907061,15.9179855 C158.541637,16.5820048 159.033646,17.3742567 159.382702,18.2943535 C159.73137,19.2136755 159.907254,20.2143535 159.907254,21.2963874 C159.907254,22.3788087 159.760039,23.3794867 159.46522,24.2999709 C159.171564,25.2200678 158.734179,26.0123196 158.15539,26.6751768 C157.577375,27.3403584 156.859506,27.8571622 156.004107,28.2263632 C155.149482,28.5971138 154.161588,28.781908 153.040426,28.781908 L143.969627,28.781908 L143.969627,28.4406005 C144.225705,28.4406005 144.400039,28.378615 144.493404,28.2550315 C144.58522,28.1314479 144.630547,27.9660242 144.630547,27.7572107 L144.630547,14.8355642 Z M152.792484,26.902586 C154.40953,26.902586 155.623283,26.4291719 156.432581,25.4807942 C157.240717,24.5320291 157.645172,23.1381308 157.645172,21.2963874 C157.645172,19.4561937 157.180668,18.061908 156.253598,17.112368 C155.324591,16.1651525 154.005075,15.6901889 152.295826,15.6901889 L146.946867,15.6901889 L146.946867,26.902586 L152.792484,26.902586 Z" id="Fill-157" fill="#FFFFFF"></path>
                <path d="M66.3076804,36.3689298 C66.3076804,36.2817627 66.2747506,36.2182276 66.2100533,36.174063 C66.1453559,36.1310605 66.0333947,36.1085908 65.8722324,36.1085908 L62.164339,36.1085908 L62.164339,37.5737724 L64.4082131,37.5737724 C64.5596901,37.5737724 64.6790121,37.5524649 64.7630799,37.5079128 C64.8467603,37.4649104 64.8886005,37.3541114 64.8886005,37.1724165 L65.09354,37.1724165 L65.09354,39.0141598 L64.8886005,39.0141598 C64.8886005,38.8340145 64.8467603,38.7174044 64.7630799,38.6662663 C64.6790121,38.6155157 64.5596901,38.5891719 64.4082131,38.5891719 L62.164339,38.5891719 L62.164339,40.2201646 L65.9869056,40.2201646 C66.1011913,40.2201646 66.1953317,40.193046 66.2677772,40.1376465 C66.3406102,40.0818596 66.3766392,40.0070896 66.3766392,39.9129492 L66.5819661,39.9129492 L66.5819661,41.5311574 L66.3766392,41.5311574 C66.3766392,41.413385 66.3406102,41.3467506 66.2677772,41.3308668 C66.1953317,41.3149831 66.1011913,41.3068475 65.9869056,41.3068475 L60.6534431,41.3068475 L60.6534431,41.0937724 C60.7080678,41.0937724 60.7553317,41.0755642 60.7971719,41.0406973 C60.8393995,41.0054431 60.8595448,40.952368 60.8595448,40.8818596 L60.8595448,35.5181792 C60.8595448,35.4465085 60.8393995,35.3942082 60.7971719,35.3593414 C60.7553317,35.3233123 60.7080678,35.3051041 60.6534431,35.3051041 L60.6534431,35.0931913 L65.8722324,35.0931913 C66.0333947,35.0931913 66.1453559,35.0683971 66.2100533,35.0160969 C66.2747506,34.9649588 66.3076804,34.8967748 66.3076804,34.8099952 L66.5137821,34.8099952 L66.5137821,36.3689298 L66.3076804,36.3689298 Z" id="Fill-159" fill="#FFFFFF"></path>
                <path d="M68.3442131,41.094276 C68.4894915,41.094276 68.561937,41.0229927 68.561937,40.881201 L68.561937,35.5182954 C68.561937,35.376891 68.4894915,35.3056077 68.3442131,35.3056077 L68.3442131,35.0925327 L70.3014044,35.0925327 L70.3014044,35.3056077 C70.2401937,35.3056077 70.2095884,35.3451235 70.2095884,35.424155 C70.2095884,35.4876901 70.2855206,35.5977143 70.4385472,35.7542276 L73.7230024,39.2753898 L73.7230024,35.5182954 C73.7230024,35.376891 73.6246005,35.3056077 73.4258596,35.3056077 L73.4258596,35.0925327 L75.154092,35.0925327 L75.154092,35.3056077 C75.009201,35.3056077 74.9367554,35.376891 74.9367554,35.5182954 L74.9367554,40.881201 C74.9367554,41.0229927 75.009201,41.094276 75.154092,41.094276 L75.154092,41.3073511 L73.300339,41.3073511 L73.300339,41.094276 C73.3987409,41.094276 73.4487167,41.0590218 73.4487167,40.9881259 C73.4487167,40.932339 73.3875061,40.8428475 73.2650847,40.7157772 L69.7741404,36.9602324 L69.7741404,40.881201 C69.7741404,41.0229927 69.8628571,41.094276 70.0371913,41.094276 L70.0371913,41.3073511 L68.3442131,41.3073511 L68.3442131,41.094276 Z" id="Fill-161" fill="#FFFFFF"></path>
                <path d="M80.349753,40.8816659 C80.349753,41.0234576 80.4338208,41.0947409 80.6011816,41.0947409 L80.6011816,41.3066538 L78.8392446,41.3066538 L78.8392446,41.0947409 C78.8923196,41.0947409 78.9399709,41.0765327 78.9821985,41.0405036 C79.0240387,41.0052494 79.0453462,40.9521743 79.0453462,40.8816659 L79.0453462,36.1796804 L77.156339,36.1796804 C77.088155,36.1796804 77.0211332,36.2002131 76.9568232,36.2385666 C76.8909637,36.2780823 76.8591961,36.3532397 76.8591961,36.4632639 L76.6530944,36.4632639 L76.6530944,34.809414 L76.8591961,34.809414 C76.8591961,34.9194383 76.8909637,34.9953705 76.9568232,35.033724 C77.0211332,35.0736271 77.088155,35.0929976 77.156339,35.0929976 L82.2379855,35.0929976 C82.3073317,35.0929976 82.3728039,35.0736271 82.4386634,35.033724 C82.5033608,34.9953705 82.5362906,34.9194383 82.5362906,34.809414 L82.74123,34.809414 L82.74123,36.4632639 L82.5362906,36.4632639 C82.5362906,36.3532397 82.5033608,36.2780823 82.4386634,36.2385666 C82.3728039,36.2002131 82.3073317,36.1796804 82.2379855,36.1796804 L80.349753,36.1796804 L80.349753,40.8816659 Z" id="Fill-163" fill="#FFFFFF"></path>
                <path d="M89.8370944,36.3689298 C89.8370944,36.2817627 89.8045521,36.2182276 89.7398547,36.174063 C89.6751574,36.1310605 89.5628087,36.1085908 89.4020339,36.1085908 L85.6941404,36.1085908 L85.6941404,37.5737724 L87.9380145,37.5737724 C88.0894915,37.5737724 88.2076513,37.5524649 88.2924939,37.5079128 C88.3761743,37.4649104 88.4184019,37.3541114 88.4184019,37.1724165 L88.6233414,37.1724165 L88.6233414,39.0141598 L88.4184019,39.0141598 C88.4184019,38.8340145 88.3761743,38.7174044 88.2924939,38.6662663 C88.2076513,38.6155157 88.0894915,38.5891719 87.9380145,38.5891719 L85.6941404,38.5891719 L85.6941404,40.2201646 L89.516707,40.2201646 C89.6309927,40.2201646 89.7251332,40.193046 89.7975787,40.1376465 C89.8700242,40.0818596 89.9064407,40.0070896 89.9064407,39.9129492 L90.1113801,39.9129492 L90.1113801,41.5311574 L89.9064407,41.5311574 C89.9064407,41.413385 89.8700242,41.3467506 89.7975787,41.3308668 C89.7251332,41.3149831 89.6309927,41.3068475 89.516707,41.3068475 L84.1828571,41.3068475 L84.1828571,41.0937724 C84.2374818,41.0937724 84.2851332,41.0755642 84.3269734,41.0406973 C84.369201,41.0054431 84.3893462,40.952368 84.3893462,40.8818596 L84.3893462,35.5181792 C84.3893462,35.4465085 84.369201,35.3942082 84.3269734,35.3593414 C84.2851332,35.3233123 84.2374818,35.3051041 84.1828571,35.3051041 L84.1828571,35.0931913 L89.4020339,35.0931913 C89.5628087,35.0931913 89.6751574,35.0683971 89.7398547,35.0160969 C89.8045521,34.9649588 89.8370944,34.8967748 89.8370944,34.8099952 L90.0435835,34.8099952 L90.0435835,36.3689298 L89.8370944,36.3689298 Z" id="Fill-165" fill="#FFFFFF"></path>
                <path d="M95.6618692,35.0928426 C96.0279709,35.0928426 96.360368,35.1269346 96.6582857,35.1939564 C96.9550412,35.2609782 97.2099564,35.3671283 97.4245811,35.5124068 C97.6388184,35.65846 97.8026925,35.8475157 97.9162034,36.078799 C98.0316513,36.3120194 98.0886005,36.5967651 98.0886005,36.9357482 C98.0886005,37.4560387 97.9402228,37.8535206 97.6419177,38.1289685 C97.344,38.4044165 96.9438063,38.5892107 96.4405617,38.6845133 L97.9623051,40.9283874 C98.0157676,41.0078063 98.0793027,41.0554576 98.1521356,41.0701792 C98.2230315,41.0872252 98.2900533,41.0949734 98.3512639,41.0949734 L98.3512639,41.3068862 L96.2116029,41.3068862 L96.2116029,41.0949734 C96.2809492,41.0949734 96.3386731,41.0825763 96.3886489,41.0585569 C96.4382373,41.0349249 96.4630315,41.0031574 96.4630315,40.9644165 C96.4630315,40.9249007 96.4471477,40.8799613 96.4177046,40.8288232 C96.3874867,40.7776852 96.3409976,40.708339 96.2809492,40.6215593 L95.0218692,38.779816 L93.3850654,38.779816 L93.3850654,40.8818983 C93.3850654,40.9520194 93.4090847,41.0054818 93.4586731,41.0407361 C93.5086489,41.0756029 93.5985278,41.0949734 93.7275351,41.0949734 L93.7275351,41.3068862 L91.7474867,41.3068862 L91.7474867,41.0949734 C91.9698596,41.0949734 92.0806586,41.0236901 92.0806586,40.8818983 L92.0806586,35.5182179 C92.0806586,35.3760387 91.9698596,35.3047554 91.7474867,35.3047554 L91.7474867,35.0928426 L95.6618692,35.0928426 Z M95.3651138,37.8570073 C95.6390121,37.8570073 95.8683584,37.8356998 96.0519903,37.7926973 C96.23446,37.7493075 96.3797385,37.6880969 96.4858886,37.608678 C96.5935884,37.5308087 96.669908,37.4378305 96.7148475,37.3309056 C96.7613366,37.2247554 96.7838063,37.1089201 96.7838063,36.9833995 C96.7838063,36.8574915 96.7613366,36.7408814 96.7148475,36.6343438 C96.669908,36.5278063 96.5935884,36.4359903 96.4858886,36.3565714 C96.3797385,36.2787022 96.23446,36.2182663 96.0519903,36.1741017 C95.8683584,36.1310993 95.6390121,36.1082421 95.3651138,36.1082421 L93.3850654,36.1082421 L93.3850654,37.8570073 L95.3651138,37.8570073 Z" id="Fill-167" fill="#FFFFFF"></path>
                <path d="M103.239051,40.8816659 C103.239051,41.0234576 103.321569,41.0947409 103.490479,41.0947409 L103.490479,41.3066538 L101.728542,41.3066538 L101.728542,41.0947409 C101.78123,41.0947409 101.828881,41.0765327 101.871109,41.0405036 C101.912949,41.0052494 101.934644,40.9521743 101.934644,40.8816659 L101.934644,36.1796804 L100.045249,36.1796804 C99.9770654,36.1796804 99.910431,36.2002131 99.8445714,36.2385666 C99.7798741,36.2780823 99.7481065,36.3532397 99.7481065,36.4632639 L99.5420048,36.4632639 L99.5420048,34.809414 L99.7481065,34.809414 C99.7481065,34.9194383 99.7798741,34.9953705 99.8445714,35.033724 C99.910431,35.0736271 99.9770654,35.0929976 100.045249,35.0929976 L105.126896,35.0929976 C105.19508,35.0929976 105.262102,35.0736271 105.327574,35.033724 C105.392271,34.9953705 105.424039,34.9194383 105.424039,34.809414 L105.63014,34.809414 L105.63014,36.4632639 L105.424039,36.4632639 C105.424039,36.3532397 105.392271,36.2780823 105.327574,36.2385666 C105.262102,36.2002131 105.19508,36.1796804 105.126896,36.1796804 L103.239051,36.1796804 L103.239051,40.8816659 Z" id="Fill-169" fill="#FFFFFF"></path>
                <path d="M106.328097,41.094276 C106.427661,41.0783923 106.505918,41.0276416 106.562479,40.9412494 C106.619429,40.8540823 106.674828,40.7556804 106.729065,40.6456562 L108.846257,36.0498208 C108.899719,35.9479322 108.94737,35.8530169 108.989211,35.7666247 C109.031051,35.6790702 109.051196,35.6046877 109.051196,35.5423148 C109.051196,35.4628959 109.02524,35.4074964 108.971777,35.376891 C108.918702,35.3451235 108.860978,35.3214915 108.799768,35.3056077 L108.799768,35.0925327 L110.735651,35.0925327 L110.735651,35.3056077 C110.681027,35.3214915 110.627952,35.3439613 110.574489,35.3703051 C110.521027,35.3981985 110.492746,35.4559225 110.492746,35.5423148 C110.492746,35.6046877 110.507855,35.6682228 110.533424,35.7313705 C110.559768,35.7937433 110.601608,35.8766489 110.65507,35.9796998 L113.034925,40.7874479 C113.072116,40.874615 113.124416,40.9369879 113.189114,40.9765036 C113.254973,41.0164068 113.328194,41.0543729 113.412262,41.094276 L113.412262,41.3073511 L111.399671,41.3073511 L111.399671,41.094276 C111.429114,41.094276 111.467855,41.0830412 111.512019,41.0590218 C111.558121,41.0357772 111.580978,40.9989734 111.580978,40.9528717 C111.580978,40.874615 111.551148,40.7715642 111.490324,40.6456562 L111.056039,39.7704988 L108.262431,39.7704988 L107.850228,40.6104019 C107.773908,40.7758257 107.735554,40.8935981 107.735554,40.9641065 C107.735554,41.0512736 107.808,41.094276 107.952891,41.094276 L107.952891,41.3073511 L106.328097,41.3073511 L106.328097,41.094276 Z M110.642673,38.896891 L109.681511,36.6991186 L108.606063,38.896891 L110.642673,38.896891 Z" id="Fill-171" fill="#FFFFFF"></path>
                <path d="M114.671419,41.094276 C114.869772,41.094276 114.969724,41.0229927 114.969724,40.881201 L114.969724,35.5182954 C114.969724,35.376891 114.869772,35.3056077 114.671419,35.3056077 L114.671419,35.0925327 L116.570886,35.0925327 L116.570886,35.3056077 C116.372533,35.3056077 116.274131,35.376891 116.274131,35.5182954 L116.274131,40.881201 C116.274131,41.0229927 116.372533,41.094276 116.570886,41.094276 L116.570886,41.3073511 L114.671419,41.3073511 L114.671419,41.094276 Z" id="Fill-173" fill="#FFFFFF"></path>
                <path d="M118.573869,41.094276 C118.719148,41.094276 118.791593,41.0229927 118.791593,40.881201 L118.791593,35.5182954 C118.791593,35.376891 118.719148,35.3056077 118.573869,35.3056077 L118.573869,35.0925327 L120.531061,35.0925327 L120.531061,35.3056077 C120.470237,35.3056077 120.439245,35.3451235 120.439245,35.424155 C120.439245,35.4876901 120.515564,35.5977143 120.668203,35.7542276 L123.952659,39.2753898 L123.952659,35.5182954 C123.952659,35.376891 123.853869,35.3056077 123.655516,35.3056077 L123.655516,35.0925327 L125.383748,35.0925327 L125.383748,35.3056077 C125.237695,35.3056077 125.165249,35.376891 125.165249,35.5182954 L125.165249,40.881201 C125.165249,41.0229927 125.237695,41.094276 125.383748,41.094276 L125.383748,41.3073511 L123.528833,41.3073511 L123.528833,41.094276 C123.628397,41.094276 123.677211,41.0590218 123.677211,40.9881259 C123.677211,40.932339 123.617162,40.8428475 123.494741,40.7157772 L120.004184,36.9602324 L120.004184,40.881201 C120.004184,41.0229927 120.091351,41.094276 120.26801,41.094276 L120.26801,41.3073511 L118.573869,41.3073511 L118.573869,41.094276 Z" id="Fill-175" fill="#FFFFFF"></path>
                <path d="M127.443409,41.094276 C127.503458,41.094276 127.558082,41.0760678 127.603409,41.0408136 C127.649898,41.0051719 127.671593,40.9528717 127.671593,40.881201 L127.671593,35.4946634 C127.671593,35.424155 127.649898,35.3745666 127.603409,35.3474479 C127.558082,35.3203293 127.503458,35.3056077 127.443409,35.3056077 L127.443409,35.0925327 L129.58307,35.0925327 L129.58307,35.3056077 C129.545879,35.3056077 129.504814,35.3180048 129.462973,35.3404746 C129.421133,35.3644939 129.400988,35.4009104 129.400988,35.4470121 C129.400988,35.4876901 129.415709,35.5376659 129.446315,35.601201 C129.476533,35.6647361 129.510625,35.7313705 129.549366,35.8018789 L131.185782,38.8732591 L132.833433,35.8382954 C132.886896,35.7348571 132.926412,35.6546634 132.953918,35.5957772 C132.979874,35.5365036 132.994596,35.4822663 132.994596,35.4357772 C132.994596,35.3497724 132.94462,35.3056077 132.844668,35.3056077 L132.844668,35.0925327 L134.963022,35.0925327 L134.963022,35.3056077 C134.901811,35.3056077 134.847574,35.3203293 134.802247,35.3474479 C134.75692,35.3745666 134.732901,35.424155 134.732901,35.4946634 L134.732901,40.881201 C134.732901,40.9528717 134.75692,41.0051719 134.802247,41.0408136 C134.847574,41.0760678 134.901811,41.094276 134.963022,41.094276 L134.963022,41.3073511 L133.165831,41.3073511 L133.165831,41.094276 C133.371932,41.094276 133.474983,41.0229927 133.474983,40.881201 L133.474983,36.9602324 L133.451351,36.9602324 L131.150528,41.3073511 L131.116436,41.3073511 L128.862489,36.9474479 L128.839632,36.9474479 L128.839632,40.881201 C128.839632,41.0229927 128.946557,41.094276 129.159632,41.094276 L129.159632,41.3073511 L127.443409,41.3073511 L127.443409,41.094276 Z" id="Fill-177" fill="#FFFFFF"></path>
                <path d="M142.607613,36.3689298 C142.607613,36.2817627 142.574683,36.2182276 142.510373,36.174063 C142.445676,36.1310605 142.333327,36.1085908 142.172552,36.1085908 L138.465433,36.1085908 L138.465433,37.5737724 L140.708533,37.5737724 C140.86001,37.5737724 140.979332,37.5524649 141.06185,37.5079128 C141.146692,37.4649104 141.18892,37.3541114 141.18892,37.1724165 L141.395022,37.1724165 L141.395022,39.0141598 L141.18892,39.0141598 C141.18892,38.8340145 141.146692,38.7174044 141.06185,38.6662663 C140.979332,38.6155157 140.86001,38.5891719 140.708533,38.5891719 L138.465433,38.5891719 L138.465433,40.2201646 L142.286838,40.2201646 C142.401511,40.2201646 142.495651,40.193046 142.567709,40.1376465 C142.640542,40.0818596 142.676959,40.0070896 142.676959,39.9129492 L142.881898,39.9129492 L142.881898,41.5311574 L142.676959,41.5311574 C142.676959,41.413385 142.640542,41.3467506 142.567709,41.3308668 C142.495651,41.3149831 142.401511,41.3068475 142.286838,41.3068475 L136.953375,41.3068475 L136.953375,41.0937724 C137.008,41.0937724 137.055651,41.0755642 137.096329,41.0406973 C137.138557,41.0054431 137.159864,40.952368 137.159864,40.8818596 L137.159864,35.5181792 C137.159864,35.4465085 137.138557,35.3942082 137.096329,35.3593414 C137.055651,35.3233123 137.008,35.3051041 136.953375,35.3051041 L136.953375,35.0931913 L142.172552,35.0931913 C142.333327,35.0931913 142.445676,35.0683971 142.510373,35.0160969 C142.574683,34.9649588 142.607613,34.8967748 142.607613,34.8099952 L142.813714,34.8099952 L142.813714,36.3689298 L142.607613,36.3689298 Z" id="Fill-179" fill="#FFFFFF"></path>
                <path d="M144.644533,41.094276 C144.789811,41.094276 144.862257,41.0229927 144.862257,40.881201 L144.862257,35.5182954 C144.862257,35.376891 144.789811,35.3056077 144.644533,35.3056077 L144.644533,35.0925327 L146.602111,35.0925327 L146.602111,35.3056077 C146.540901,35.3056077 146.509908,35.3451235 146.509908,35.424155 C146.509908,35.4876901 146.586228,35.5977143 146.738867,35.7542276 L150.023322,39.2753898 L150.023322,35.5182954 C150.023322,35.376891 149.92492,35.3056077 149.726567,35.3056077 L149.726567,35.0925327 L151.454799,35.0925327 L151.454799,35.3056077 C151.308358,35.3056077 151.2363,35.376891 151.2363,35.5182954 L151.2363,40.881201 C151.2363,41.0229927 151.308358,41.094276 151.454799,41.094276 L151.454799,41.3073511 L149.599496,41.3073511 L149.599496,41.094276 C149.699448,41.094276 149.748262,41.0590218 149.748262,40.9881259 C149.748262,40.932339 149.688213,40.8428475 149.565404,40.7157772 L146.074847,36.9602324 L146.074847,40.881201 C146.074847,41.0229927 146.162402,41.094276 146.339061,41.094276 L146.339061,41.3073511 L144.644533,41.3073511 L144.644533,41.094276 Z" id="Fill-181" fill="#FFFFFF"></path>
                <path d="M156.649685,40.8816659 C156.649685,41.0234576 156.733753,41.0947409 156.901114,41.0947409 L156.901114,41.3066538 L155.139177,41.3066538 L155.139177,41.0947409 C155.192252,41.0947409 155.241065,41.0765327 155.282131,41.0405036 C155.323971,41.0052494 155.345278,40.9521743 155.345278,40.8816659 L155.345278,36.1796804 L153.457433,36.1796804 C153.388087,36.1796804 153.321453,36.2002131 153.256755,36.2385666 C153.190896,36.2780823 153.159128,36.3532397 153.159128,36.4632639 L152.953027,36.4632639 L152.953027,34.809414 L153.159128,34.809414 C153.159128,34.9194383 153.190896,34.9953705 153.256755,35.033724 C153.321453,35.0736271 153.388087,35.0929976 153.457433,35.0929976 L158.537918,35.0929976 C158.607264,35.0929976 158.674286,35.0736271 158.738596,35.033724 C158.803293,34.9953705 158.836223,34.9194383 158.836223,34.809414 L159.042324,34.809414 L159.042324,36.4632639 L158.836223,36.4632639 C158.836223,36.3532397 158.803293,36.2780823 158.738596,36.2385666 C158.674286,36.2002131 158.607264,36.1796804 158.537918,36.1796804 L156.649685,36.1796804 L156.649685,40.8816659 Z" id="Fill-183" fill="#FFFFFF"></path>
            </g>
        </g>
    </g>
</svg>