<svg xmlns="http://www.w3.org/2000/svg" viewBox="0 0 31.49 31.55"><defs><style>.cls-1{fill:none;}.cls-2{fill:#906c4d;}</style></defs><g id="Layer_2" data-name="Layer 2"><g id="Layer_1-2" data-name="Layer 1"><rect class="cls-1" width="31.27" height="31.29"/><ellipse class="cls-2" cx="15.86" cy="15.91" rx="15.63" ry="15.64"/><path d="M20.45,15.89c-.47,1.33-.88,2.54-1.3,3.74-.2.59-.42,1.19-.61,1.79a1,1,0,0,1-1,.82,1,1,0,0,1-1-.77c-.86-2.42-1.74-4.83-2.59-7.25-.21-.6,0-1,.47-1.21s1,0,1.17.65c.66,1.92,1.3,3.85,2,5.88.56-1.69,1.09-3.29,1.61-4.89.11-.33.23-.65.33-1a1,1,0,0,1,1.89,0c.59,1.81,1.19,3.63,1.79,5.44,0,.12.09.23.15.39.63-1.87,1.24-3.71,1.86-5.54.05-.15.09-.31.15-.46a.85.85,0,0,1,1.1-.51A.79.79,0,0,1,27,14.1c-.38,1.08-.77,2.15-1.16,3.22-.48,1.36-1,2.72-1.45,4.09a1.06,1.06,0,0,1-1.05.85c-.54,0-.8-.39-1-.87C21.72,19.6,21.11,17.82,20.45,15.89Z"/><path d="M10.85,16.23c-.69,1-1.27,1.91-1.86,2.78S7.84,20,7.2,19,6,17.21,5.29,16.15c0,1.82,0,3.45,0,5.08a.81.81,0,0,1-.62.92.83.83,0,0,1-1-.82c0-2.49,0-5,0-7.48A.8.8,0,0,1,4.27,13a1,1,0,0,1,1.22.46c.67,1,1.33,2.1,2,3.15.18.29.37.58.61.94.44-.67.84-1.28,1.24-1.91s.91-1.41,1.35-2.11A1,1,0,0,1,11.94,13c.56.16.68.59.69,1.09V21c0,.74-.35,1.15-.91,1.14s-.87-.42-.87-1.17Z"/><path d="M28.12,10.75a1.11,1.11,0,0,1-1.18,1.12,1.16,1.16,0,1,1,1.18-1.12Z"/><path d="M21.61,10.75a1.11,1.11,0,0,1-1.18,1.12,1.16,1.16,0,1,1,.05-2.31A1.14,1.14,0,0,1,21.61,10.75Z"/><path d="M15.1,10.75a1.11,1.11,0,0,1-1.18,1.12,1.16,1.16,0,1,1,1.18-1.12Z"/><path d="M9.34,10.75a1.12,1.12,0,0,1-1.19,1.12,1.16,1.16,0,1,1,1.19-1.12Z"/></g></g></svg>