<?xml version="1.0" encoding="UTF-8"?>
<svg width="150px" height="150px" viewBox="0 0 150 150" version="1.1" xmlns="http://www.w3.org/2000/svg" xmlns:xlink="http://www.w3.org/1999/xlink">
    <title>PK10 logo TC</title>
    <defs>
        <ellipse id="path-1" cx="75.5" cy="74.5" rx="59.5" ry="59"></ellipse>
        <path d="M60.0003322,0.948487501 C26.8626039,0.948487501 0.000666666667,27.7666165 0.000666666667,60.8488097 L0.000666666667,60.8488097 C0.000666666667,93.9316708 26.8626039,120.750468 60.0003322,120.750468 L60.0003322,120.750468 C93.1380604,120.750468 120.000667,93.9316708 120.000667,60.8488097 L120.000667,60.8488097 C120.000667,27.7666165 93.1380604,0.948487501 60.0003322,0.948487501 Z" id="path-3"></path>
        <linearGradient x1="49.9998934%" y1="100%" x2="49.9998934%" y2="-0.000344193203%" id="linearGradient-5">
            <stop stop-color="#B8233D" offset="0%"></stop>
            <stop stop-color="#FB644B" offset="100%"></stop>
        </linearGradient>
        <path d="M60,0.948487501 C26.9514316,0.948487501 0.143831951,27.6210183 0,60.5803212 L0,60.5803212 L0,61.1172982 C0.143831951,94.0779369 26.9514316,120.750468 60,120.750468 L60,120.750468 C93.1375435,120.750468 120,93.9323387 120,60.8488097 L120,60.8488097 C120,27.7666165 93.1375435,0.948487501 60,0.948487501 Z" id="path-6"></path>
        <linearGradient x1="50.0001721%" y1="100%" x2="50.0001721%" y2="-0.000344193203%" id="linearGradient-8">
            <stop stop-color="#B8233D" offset="0%"></stop>
            <stop stop-color="#FB644B" offset="100%"></stop>
        </linearGradient>
    </defs>
    <g id="Page-1" stroke="none" stroke-width="1" fill="none" fill-rule="evenodd">
        <g id="Lottery_PK10-TC" transform="translate(-645.000000, -222.000000)">
            <g id="PK10-logo-TC" transform="translate(645.000000, 222.000000)">
                <g id="Bitmap">
                    <rect id="Rectangle" x="0" y="0" width="150" height="150"></rect>
                    <mask id="mask-2" fill="white">
                        <use xlink:href="#path-1"></use>
                    </mask>
                    <use id="Mask" fill="#D8D8D8" xlink:href="#path-1"></use>
                    <g id="Group-33-Copy" mask="url(#mask-2)">
                        <g transform="translate(15.000000, 14.000000)">
                            <g id="Group-3">
                                <mask id="mask-4" fill="white">
                                    <use xlink:href="#path-3"></use>
                                </mask>
                                <g id="Clip-2"></g>
                                <path d="M60.0003322,0.948487501 C26.8626039,0.948487501 0.000666666667,27.7666165 0.000666666667,60.8488097 L0.000666666667,60.8488097 C0.000666666667,93.9316708 26.8626039,120.750468 60.0003322,120.750468 L60.0003322,120.750468 C93.1380604,120.750468 120.000667,93.9316708 120.000667,60.8488097 L120.000667,60.8488097 C120.000667,27.7666165 93.1380604,0.948487501 60.0003322,0.948487501 Z" id="Fill-1" fill="url(#linearGradient-5)" mask="url(#mask-4)"></path>
                            </g>
                            <g id="Group-32" transform="translate(5.000000, 33.000000)">
                                <polygon id="Fill-4" fill="#00E2BA" points="43.8635159 24.3616358 104.128166 0.625888421 87.9976242 62.4746463 41.8210318 43.6071411"></polygon>
                                <polygon id="Fill-6" fill="#E96600" points="45.7288376 22.5654726 48.7196656 26.5503884 53.3731051 21.8207463 53.9823726 16.6189358"></polygon>
                                <polygon id="Fill-8" fill="#FF9800" points="65.6671338 3.98538 68.4225478 6.15921158 67.2327707 56.9789905 60.4579299 53.1485905"></polygon>
                                <polygon id="Fill-10" fill="#E96600" points="49.9936433 53.8730905 57.4152038 57.6590589 67.2323694 56.9793221 60.4575287 53.1482589"></polygon>
                                <polygon id="Fill-12" fill="#FFAF00" points="54.9252994 19.9180137 56.6012866 49.47894 56.6012866 49.4835821 10.7029108 54.1382874 5.98526752 12.2664979"></polygon>
                                <polygon id="Fill-14" fill="#FF9800" points="5.98546815 12.2667632 0.101455414 24.8170263 8.01591401 58.7627526 10.7031115 54.1385526"></polygon>
                                <polygon id="Fill-16" fill="#E96600" points="8.01598089 58.7629516 56.6008854 49.4833832 10.7031783 54.1380884"></polygon>
                                <path d="M24.197551,27.0505421 C23.8999395,26.0127 23.4257675,25.1791105 22.7703535,24.5464579 C22.1095892,23.9085 21.3444936,23.5371316 20.4703854,23.4356684 L18.3282516,23.1876474 L19.4658631,31.7072368 L21.6815637,31.8146684 C22.9014363,31.8730263 23.7300669,31.4698263 24.1828376,30.6097105 C24.630258,29.7595421 24.6342707,28.5764684 24.197551,27.0505421 M29.3820096,26.6281105 C29.8715637,28.3602789 30.0882516,29.8822263 30.0320732,31.2005842 C29.9745573,32.5282263 29.6816274,33.6363632 29.1465955,34.5269842 C28.6048758,35.4295421 27.8364363,36.1159105 26.8325828,36.5841 C25.8093344,37.0622368 24.5834427,37.3016368 23.1448758,37.2969947 L20.1587293,37.2863842 L21.6748758,49.2597 L14.9809586,49.8923526 L10.8471688,16.3617632 L19.800258,17.8001526 C20.7840478,17.9579842 21.7745255,18.2564053 22.7710223,18.6907737 C23.7521369,19.1191737 24.6737293,19.7040789 25.5391433,20.4435 C26.3931879,21.1743 27.1515955,22.0523211 27.818379,23.0782263 C28.4798121,24.0961737 29.0007994,25.2785842 29.3820096,26.6281105" id="Fill-18" fill="#153FD9"></path>
                                <polygon id="Fill-20" fill="#153FD9" points="41.0459713 33.4852295 48.0007166 46.4473137 43.5887102 46.8651032 37.3134554 34.7425768 37.2245064 34.7399242 38.9988057 47.3001347 34.3393471 47.7411347 30.4851115 19.9985874 35.2308439 20.7612189 36.8132006 31.78224 36.9021497 31.7868821 39.5826592 21.4615137 44.2187102 22.2069032"></polygon>
                                <path d="M94.2154299,23.2286305 C94.1498885,22.2663884 94.0295064,21.3545463 93.8549522,20.4917779 C93.6783917,19.6303358 93.4282643,18.8637253 93.1039013,18.1952621 C92.7775318,17.5267989 92.3695701,17.0135147 91.8786783,16.6547463 C91.3871178,16.2973042 90.7939013,16.1407989 90.0970223,16.18722 C88.9814809,16.2614937 88.026449,16.7979884 87.231258,17.7940516 C86.4347293,18.7907779 85.7632643,20.0660305 85.2168631,21.6211358 C84.6691242,23.1762411 84.2257166,24.9090726 83.8893153,26.8183042 C83.5515764,28.7275358 83.3061306,30.6075884 83.1523089,32.4584621 C82.9978185,34.3093358 82.9055255,36.0415042 82.8754299,37.6536411 C82.8453344,39.2671042 82.8640605,40.5775042 82.9329459,41.5841779 C82.9984873,42.54642 83.1168631,43.4476516 83.2914172,44.2872095 C83.4653025,45.1274305 83.7127548,45.8588937 84.0351115,46.4809358 C84.3574682,47.1043042 84.7520541,47.5957042 85.220207,47.9544726 C85.6883599,48.3152305 86.270207,48.4710726 86.9677548,48.4246516 C88.0351433,48.3536937 88.9681051,47.8198516 89.763965,46.8231253 C90.5598248,45.8270621 91.2439968,44.5610937 91.8164809,43.0272095 C92.388965,41.4939884 92.8430732,39.7830411 93.1814809,37.89702 C93.5205573,36.0103358 93.7787102,34.1415568 93.9559395,32.2886937 C94.1331688,30.4364937 94.2381688,28.7149358 94.2702707,27.1246832 C94.3017038,25.5357568 94.2843153,24.2372937 94.2154299,23.2286305 M100.895971,23.3652411 C100.786959,25.8573884 99.2587739,32.6885779 98.8046656,35.2264832 C98.3512261,37.7657147 83.8645701,56.1272305 82.1150159,55.3015989 C80.3641242,54.4759674 77.1940605,54.7962726 76.0738376,53.3287042 C74.9522771,51.8624621 74.106258,50.1588095 73.5331051,48.2177463 C72.9599522,46.2780095 72.6048248,44.2765989 72.464379,42.2148411 C72.3266083,40.1995042 72.3011943,37.9460937 72.3874682,35.4552726 C72.4724045,32.9651147 72.7432643,30.4391463 73.1953662,27.8773674 C73.6474682,25.3169147 74.2888376,22.8121674 75.1208121,20.3631253 C75.9521178,17.9154095 77.0562898,15.7243358 78.433328,13.7912305 C79.8096975,11.8594516 81.4763217,10.2638937 83.4338694,9.00455684 C85.3900796,7.74720947 87.7081051,7.02834632 90.3872771,6.84929368 C92.8357166,6.68549368 94.1605892,8.93824105 96.1027548,9.18493579 C97.1968949,9.32419895 101.004984,20.8724305 100.895971,23.3652411" id="Fill-22" fill="#E96600"></path>
                                <path d="M91.8165478,43.0271432 C91.3657834,44.2340905 90.8468025,45.2739221 90.2575987,46.1479642 L93.5587452,35.5699326 C93.4470573,36.3431747 93.3213248,37.1184063 93.1815478,37.8969537 C92.8431401,39.7829747 92.3883631,41.4939221 91.8165478,43.0271432 M103.711643,16.4855747 C103.705624,16.46568 103.700274,16.4457853 103.694255,16.4265537 C102.826166,13.6074695 101.03314,11.1537853 98.6241592,9.42758526 C91.3457197,4.21450105 87.7054968,3.85440632 87.7054968,3.85440632 L92.6806242,34.4684274 C90.7939682,34.8033221 87.9830446,43.8355326 88.649828,44.9595853 L73.7498599,53.5156484 C73.7498599,53.5156484 79.9756242,55.5528695 83.7857197,56.8049116 C86.9611338,57.8487221 90.4555605,57.5131642 93.3179809,55.7975747 C93.4009108,55.7478379 93.483172,55.6967747 93.5647643,55.6457116 C95.5223121,54.4109116 97.2016433,52.8259642 98.6020892,50.8915326 C100.001866,48.9577642 101.141484,46.7766379 102.020274,44.3468274 C102.899732,41.9190063 103.565847,39.43548 104.019955,36.8962484 C104.474064,34.3583432 104.756293,31.8429853 104.865306,29.3508379 C104.974318,26.8586905 104.959605,24.60528 104.823172,22.58928 C104.679382,20.4824274 104.308873,18.4471958 103.711643,16.4855747" id="Fill-24" fill="#FF9800"></path>
                                <path d="M86.5935669,19.6719158 C86.5280255,18.7096737 86.4076433,17.7978316 86.2324204,16.9350632 C86.0558599,16.0729579 85.8057325,15.3063474 85.4813694,14.6385474 C85.1556688,13.9694211 84.7470382,13.4568 84.2561465,13.0980316 C83.7652548,12.7405895 83.1720382,12.5840842 82.4744904,12.6305053 C81.358949,12.7047789 80.404586,13.2412737 79.6087261,14.2366737 C78.8128662,15.2340632 78.1414013,16.5093158 77.5943312,18.0644211 C77.0465924,19.6195263 76.6038535,21.3523579 76.2674522,23.2609263 C75.9297134,25.1708211 75.6842675,27.0508737 75.5297771,28.9010842 C75.3752866,30.7526211 75.2829936,32.4847895 75.2535669,34.0969263 C75.2228025,35.7103895 75.2421975,37.0207895 75.310414,38.0274632 C75.3766242,38.9897053 75.495,39.8909368 75.6695541,40.7298316 C75.8427707,41.5707158 76.0908917,42.3015158 76.4132484,42.9242211 C76.7356051,43.5469263 77.1301911,44.0389895 77.5983439,44.3977579 C78.0664968,44.7578526 78.6476752,44.9143579 79.3452229,44.8679368 C80.4132803,44.7963158 81.3455732,44.2631368 82.1421019,43.2657474 C82.937293,42.2703474 83.6221338,41.0043789 84.193949,39.4704947 C84.7664331,37.9372737 85.2212102,36.2263263 85.5596178,34.3403053 C85.8980255,32.4536211 86.1561783,30.5848421 86.3334076,28.7319789 C86.5113057,26.8797789 86.6156369,25.1582211 86.6484076,23.5679684 C86.6798408,21.9790421 86.6624522,20.6799158 86.5935669,19.6719158 M97.2005732,19.0319684 C97.3376752,21.0486316 97.3517197,23.3020421 97.242707,25.7935263 C97.1336943,28.2863368 96.8521338,30.8016947 96.3980255,33.3396 C95.9439172,35.8788316 95.2771338,38.3623579 94.3983439,40.7901789 C93.5188854,43.2193263 92.3792675,45.4011158 90.9801592,47.3342211 C89.5797134,49.2693158 87.9003822,50.8536 85.9421656,52.0890632 C83.983949,53.3245263 81.6886624,54.0301263 79.0556369,54.2058632 C76.6058599,54.3696632 74.5071975,54.0374211 72.7576433,53.2117895 C71.0067516,52.3861579 69.5715287,51.2395579 68.4513057,49.7719895 C67.330414,48.3057474 66.4837261,46.6020947 65.911242,44.6610316 C65.3380892,42.7212947 64.982293,40.7198842 64.8425159,38.6581263 C64.7047452,36.6427895 64.6786624,34.3893789 64.7649363,31.8985579 C64.8505414,29.4084 65.1207325,26.8824316 65.5728344,24.3206526 C66.0256051,21.7602 66.6669745,19.2554526 67.4982803,16.8064105 C68.329586,14.3586947 69.4344268,12.1676211 70.8107962,10.2345158 C72.1878344,8.30207368 73.8544586,6.70717895 75.8113376,5.44784211 C77.7675478,4.19049474 80.0855732,3.47096842 82.765414,3.29191579 C85.2138535,3.12877895 87.3245541,3.46035789 89.0981847,4.284 C90.8711465,5.10963158 92.3304459,6.26617895 93.475414,7.75364211 C94.621051,9.24176842 95.4924841,10.9666421 96.0897134,12.9289263 C96.6869427,14.8905474 97.0574522,16.9257789 97.2005732,19.0319684" id="Fill-26" fill="#153FD9"></path>
                                <polygon id="Fill-28" fill="#153FD9" points="60.4807357 53.1526358 49.947965 53.8575726 53.9533471 16.5907516 45.7258949 22.5260147 41.7873917 14.78232 56.5442389 4.54448842 65.6919459 3.93239368"></polygon>
                                <polygon id="Fill-30" fill="#FFAF00" points="43.1078503 18.0703232 51.6422771 19.4045968 45.896035 23.1879126"></polygon>
                            </g>
                        </g>
                    </g>
                </g>
                <g id="Group-155-Copy" transform="translate(15.000000, 15.000000)">
                    <g id="Group-3">
                        <mask id="mask-7" fill="white">
                            <use xlink:href="#path-6"></use>
                        </mask>
                        <g id="Clip-2"></g>
                        <path d="M60,0.948487501 C26.9514316,0.948487501 0.143831951,27.6210183 0,60.5803212 L0,60.5803212 L0,61.1172982 C0.143831951,94.0779369 26.9514316,120.750468 60,120.750468 L60,120.750468 C93.1375435,120.750468 120,93.9323387 120,60.8488097 L120,60.8488097 C120,27.7666165 93.1375435,0.948487501 60,0.948487501 Z" id="Fill-1" fill="url(#linearGradient-8)" mask="url(#mask-7)"></path>
                    </g>
                    <g id="Group-154" transform="translate(11.000000, 26.000000)">
                        <polygon id="Fill-4" fill="#00E2BA" points="76.1578667 72.6328764 27.0685333 46.7875582 33.2378667 18.8504582 90.7005333 0.374158182"></polygon>
                        <polygon id="Fill-6" fill="#FFAF00" points="47.2861333 15.1748418 52.5074667 58.7976509 11.8534667 66.6697055 6.07413333 8.52255091"></polygon>
                        <polygon id="Fill-8" fill="#FF9800" points="6.07393333 8.52261727 0.1646 17.3430082 7.9446 70.0476809 11.8532667 66.6697718"></polygon>
                        <polygon id="Fill-10" fill="#E96600" points="7.94433333 70.0480127 52.5076667 58.8007036 11.853 66.6701036"></polygon>
                        <path d="M30.46,37.60595 L22.62,37.59865 L21.3466667,13.8252045 L25.4066667,14.4888409 L25.696,20.79405 L26.3653333,20.87435 L26.8893333,16.7505136 L30.382,17.2714682 L29.6046667,23.8719955 L25.8193333,23.4917318 L26.3506667,35.0761682 L30.3666667,35.1518227 L30.46,37.60595 Z M17.0533333,37.5933409 L16.8166667,33.9479864 L11.6786667,36.50365 L11.4526667,33.50335 L16.6146667,30.8275682 L16.0773333,22.5141955 L10.5073333,21.95475 L10.2806667,18.9551136 L15.8906667,19.6240591 L15.4526667,12.8622682 L19.8186667,13.5756773 L21.1746667,37.5973227 L17.0533333,37.5933409 Z" id="Fill-12" fill="#153FD9"></path>
                        <path d="M26.9476,47.7286609 L18.2229333,48.44207 L18.4516,52.0203973 L27.1016,51.1052427 L26.9476,47.7286609 Z M24.9916,53.6960791 L25.3696,61.1825609 L21.4762667,61.8647791 L21.0249333,54.1811973 L14.2969333,55.00477 L13.6589333,46.2361427 L30.5149333,45.1391518 L30.8162667,52.9833336 L24.9916,53.6960791 Z M12.4869333,44.6945155 L12.2922667,42.0957155 L20.2756,41.7930973 L19.7489333,39.9627882 L23.9809333,39.8552791 L24.5489333,41.63117 L31.1089333,41.3823064 L31.1929333,43.6718518 L12.4869333,44.6945155 Z" id="Fill-14" fill="#153FD9"></path>
                        <path d="M16.7783333,57.2026673 C16.3283333,57.4110491 15.987,57.7760491 15.713,58.1994491 C15.119,59.1192491 15.0956667,59.9806491 15.0956667,59.9806491 C14.9283333,59.3482036 15.0116667,58.5126855 15.4456667,57.7541491 C15.7076667,57.2975673 16.159,56.8827945 16.545,56.72684 C16.9976667,56.54434 17.153,57.0287945 16.7783333,57.2026673 M16.661,56.1255855 C15.213,56.4972218 14.1343333,58.1271127 14.313,59.8578764 C14.5043333,61.7167218 16.0363333,62.8614945 17.659,62.3093491 C19.2156667,61.7791036 20.1183333,59.9229127 19.7536667,58.2498855 C19.413,56.6843673 18.057,55.7678855 16.661,56.1255855" id="Fill-16" fill="#153FD9"></path>
                        <path d="M28.5869333,55.5620255 C28.2022667,55.7498345 27.9062667,56.0836436 27.6669333,56.4725345 C27.1482667,57.3153527 27.1122667,58.1103891 27.1122667,58.1103891 C26.9822667,57.5250618 27.0682667,56.7532527 27.4489333,56.0577618 C27.6782667,55.6390073 28.0682667,55.2600709 28.3982667,55.1200436 C28.7842667,54.9561255 28.9076,55.4054073 28.5869333,55.5620255 M28.5069333,54.5659073 C27.2742667,54.8944073 26.3329333,56.3882527 26.4529333,57.9889436 C26.5809333,59.7084255 27.8582667,60.7868345 29.2436,60.2970709 C30.5756,59.8258891 31.3756,58.1163618 31.0949333,56.5627891 C30.8316,55.1100891 29.6962667,54.2486891 28.5069333,54.5659073" id="Fill-18" fill="#153FD9"></path>
                        <polygon id="Fill-20" fill="#E96600" points="55.4261333 58.2703918 57.9628 61.0118736 49.9561333 59.7496373 47.4534667 57.2464009"></polygon>
                        <polygon id="Fill-22" fill="#FF9800" points="54.2444667 35.3000791 57.8511333 37.0381427 63.1331333 44.8391882 58.7151333 42.5722064"></polygon>
                        <polygon id="Fill-24" fill="#E96600" points="55.5550667 42.52104 59.3244 44.7780673 63.1330667 44.8391218 58.7150667 42.57214"></polygon>
                        <polygon id="Fill-26" fill="#E96600" points="61.7022 25.7392691 57.5495333 25.3165327 55.5268667 22.9825236 57.7775333 22.7217145"></polygon>
                        <polygon id="Fill-28" fill="#FF9800" points="55.5270667 22.9823245 57.5490667 25.3163336 57.5297333 26.9833882 55.5230667 24.9440336"></polygon>
                        <polygon id="Fill-30" fill="#E96600" points="55.5231333 24.9440336 57.5298 26.9833882 51.2784667 26.9336155 51.2804667 25.3793791"></polygon>
                        <polygon id="Fill-32" fill="#E96600" points="51.2731333 30.19061 56.4318 29.8335736 59.2098 32.1131645 51.2704667 31.6930827"></polygon>
                        <polygon id="Fill-34" fill="#FF9800" points="57.7946 14.8006173 61.5206 18.44929 61.7019333 25.7393355 57.7779333 22.7217809"></polygon>
                        <polygon id="Fill-36" fill="#FF9800" points="47.542 13.7947436 51.7413333 16.6158618 47.396 16.6158618"></polygon>
                        <polygon id="Fill-38" fill="#FF9800" points="51.2802667 25.3792464 52.8596 26.7463373 51.2782667 26.9334827"></polygon>
                        <polygon id="Fill-40" fill="#FF9800" points="56.4384667 26.4599118 59.6978 29.1244118 59.2098 32.11343 56.4318 29.8338391"></polygon>
                        <polygon id="Fill-42" fill="#FF9800" points="51.2731333 30.19061 53.1544667 31.5829191 51.2704667 31.6930827"></polygon>
                        <polygon id="Fill-44" fill="#FF9800" points="57.6930667 31.3166682 60.9804 33.8225591 60.9557333 37.4937955 57.6844 35.1869955"></polygon>
                        <polygon id="Fill-46" fill="#E96600" points="54.2444667 35.3000791 57.6844667 35.1872609 60.9551333 37.4933973 57.8511333 37.0381427"></polygon>
                        <polygon id="Fill-48" fill="#FF9800" points="55.5550667 42.52104 59.3244 44.7780673 58.3204 55.8820309 55.5330667 54.1466218"></polygon>
                        <polygon id="Fill-50" fill="#E96600" points="53.988 53.9998255 55.536 55.7531527 58.3206667 55.8818982 55.5326667 54.1464891"></polygon>
                        <polygon id="Fill-52" fill="#FF9800" points="43.3245333 52.9891736 44.5612 54.5354464 45.7232 59.4669282 42.6658667 57.1435373"></polygon>
                        <polygon id="Fill-54" fill="#E96600" points="43.3245333 52.9891736 44.5612 54.5354464 46.9272 54.7955918 45.9772 53.2406918"></polygon>
                        <polygon id="Fill-56" fill="#E96600" points="36.1142667 56.3653573 38.9556 58.5201845 45.7229333 59.4671936 42.6656 57.1431391"></polygon>
                        <polygon id="Fill-58" fill="#E96600" points="33.3766667 25.5480755 35.0726667 27.0419209 35.0726667 25.3516391"></polygon>
                        <polygon id="Fill-60" fill="#E96600" points="35.0680667 52.2066136 36.4394 53.5843227 36.5834 52.3499591"></polygon>
                        <polygon id="Fill-62" fill="#E96600" points="32.8604 42.1529209 35.0684 43.9308027 35.0697333 42.1887573"></polygon>
                        <polygon id="Fill-64" fill="#E96600" points="33.376 35.98608 35.2233333 37.54828 36.0706667 35.8978164"></polygon>
                        <polygon id="Fill-66" fill="#E96600" points="34.4216 31.3548936 35.9342667 32.6131482 38.3989333 32.4479027 38.3996 31.0801482"></polygon>
                        <polygon id="Fill-68" fill="#E96600" points="35.0726 27.0419209 36.4106 28.2975209 38.4006 28.1150209 38.4012667 26.7001482"></polygon>
                        <polygon id="Fill-70" fill="#E96600" points="39.5466 47.99896 39.5452667 49.4211327 49.9652667 50.1557782 49.9672667 48.6207873"></polygon>
                        <polygon id="Fill-72" fill="#E96600" points="39.5485333 44.2358764 49.9732 44.5610582 49.9712 46.04694 39.5478667 45.6129218"></polygon>
                        <polygon id="Fill-74" fill="#E96600" points="39.5504667 40.37849 49.9791333 40.3990627 49.9771333 41.9353809 39.5498 41.8026536"></polygon>
                        <polygon id="Fill-76" fill="#E96600" points="47.8161333 35.5113809 48.6681333 37.0065536 40.7814667 37.18109 41.5261333 35.7184355"></polygon>
                        <polygon id="Fill-78" fill="#E96600" points="43.1520667 30.7515155 43.1507333 32.1697064 45.9434 32.0057882 45.9447333 30.5583973"></polygon>
                        <polygon id="Fill-80" fill="#E96600" points="43.1559333 26.2127073 43.1546 27.67868 45.9479333 27.4225164 45.9499333 25.9260164"></polygon>
                        <polygon id="Fill-82" fill="#E96600" points="36.7913333 22.2211336 36.7906667 23.7999245 38.4026667 23.5961882 38.4033333 21.9981518"></polygon>
                        <polygon id="Fill-84" fill="#E96600" points="43.1605333 21.3387627 45.9552 20.9518627 45.9532 22.6421445 43.1585333 22.9958627"></polygon>
                        <polygon id="Fill-86" fill="#E96600" points="51.2887333 20.2130364 51.2854 21.9690182 53.3134 21.7128545 53.3167333 19.9323182"></polygon>
                        <polygon id="Fill-88" fill="#FF9800" points="36.7913333 22.2211336 38.4026667 23.5961882 36.7906667 23.7999245"></polygon>
                        <polygon id="Fill-90" fill="#FF9800" points="43.1605333 21.3387627 43.1585333 22.9958627 44.7858667 22.8186718"></polygon>
                        <polygon id="Fill-92" fill="#FF9800" points="51.2887333 20.2130364 52.8594 21.7705909 51.2854 21.9690182"></polygon>
                        <polygon id="Fill-94" fill="#FF9800" points="43.1559333 26.2127073 44.7852667 27.5293618 43.1546 27.67868"></polygon>
                        <polygon id="Fill-96" fill="#FF9800" points="43.1520667 30.7515155 43.1507333 32.1697064 45.0194 32.0595427"></polygon>
                        <polygon id="Fill-98" fill="#FF9800" points="41.5264 35.7181036 42.8897333 37.1807582 40.7817333 37.1807582"></polygon>
                        <polygon id="Fill-100" fill="#FF9800" points="39.5504667 40.37849 41.5971333 41.8285355 39.5498 41.8026536"></polygon>
                        <polygon id="Fill-102" fill="#FF9800" points="39.5485333 44.2358764 39.5478667 45.6129218 41.8358667 45.7078218"></polygon>
                        <polygon id="Fill-104" fill="#FF9800" points="39.5466 47.99896 39.5452667 49.4211327 41.8359333 49.6155782"></polygon>
                        <path d="M53.3167333,19.9321191 L51.2887333,20.2128373 L51.2854,21.9688191 L53.3134,21.7133191 L53.3167333,19.9321191 Z M45.9447333,30.5589282 L43.1520667,30.7513827 L43.1507333,32.1695736 L45.9427333,32.0056555 L45.9447333,30.5589282 Z M45.9500667,25.9260827 L43.1560667,26.2127736 L43.1547333,27.6787464 L45.9480667,27.4225827 L45.9500667,25.9260827 Z M45.9554,20.9514645 L43.1607333,21.3390282 L43.1587333,22.9954645 L45.9534,22.64241 L45.9554,20.9514645 Z M47.8160667,35.5116464 L41.5260667,35.7180373 L40.7814,37.1806918 L48.6680667,37.0068191 L47.8160667,35.5116464 Z M49.9674,48.6211191 L39.5467333,47.9986282 L39.5454,49.4214645 L49.9654,50.1554464 L49.9674,48.6211191 Z M49.9727333,44.5609918 L39.5487333,44.23581 L39.5480667,45.6128555 L49.9707333,46.0468736 L49.9727333,44.5609918 Z M49.9787333,40.3986645 L39.5507333,40.3787555 L39.5500667,41.8022555 L49.9767333,41.9349827 L49.9787333,40.3986645 Z M38.4034,21.9980191 L36.7914,22.2210009 L36.7907333,23.7997918 L38.4027333,23.5960555 L38.4034,21.9980191 Z M55.5547333,42.5209736 L55.5327333,54.1465555 L53.9880667,53.9998918 L55.4260667,58.2703918 L47.4534,57.2464009 L45.9767333,53.2406918 L43.3247333,52.9891736 L42.6654,57.1435373 L36.1140667,56.3650918 L36.5834,52.3500918 L35.0680667,52.2067464 L35.0700667,42.1891555 L32.8600667,42.1526555 L36.0707333,35.8978827 L33.3760667,35.9861464 L33.3767333,32.7429555 L38.3987333,32.4483009 L38.3994,31.0798827 L34.4214,31.3546282 L34.4220667,28.4797555 L38.4007333,28.1154191 L38.4014,26.7005464 L35.0727333,27.0416555 L35.0727333,25.3513736 L33.3767333,25.54781 L33.3767333,18.9160918 L42.0227333,17.4587464 L42.1120667,14.8201282 L47.5420667,13.79481 L47.6354,16.5130645 L57.7947333,14.8008827 L57.7774,22.7213827 L55.5267333,22.9821918 L55.5234,24.9439009 L51.2800667,25.3792464 L51.2780667,26.9334827 L56.4387333,26.4596464 L56.4320667,29.8335736 L51.2734,30.19061 L51.2707333,31.6930827 L57.6927333,31.3168009 L57.6847333,35.1871282 L54.2447333,35.2999464 L58.7154,42.5720736 L55.5547333,42.5209736 Z" id="Fill-106" fill="#153FD9"></path>
                        <polygon id="Fill-108" fill="#E96600" points="96.4059333 21.7473636 78.1946 22.2371273 78.2052667 19.2255455 93.3206 17.2698091"></polygon>
                        <polygon id="Fill-110" fill="#E96600" points="58.3948667 53.3767373 61.5822 55.8142736 75.7228667 57.9399009 73.9435333 54.8294373"></polygon>
                        <polygon id="Fill-112" fill="#E96600" points="59.9437333 45.6411927 63.1310667 48.5339836 77.2717333 50.2043564 75.4597333 46.0466745"></polygon>
                        <polygon id="Fill-114" fill="#E96600" points="58.7158667 21.7473636 61.8832 24.6467909 73.9605333 23.5882909 73.9858667 19.7538"></polygon>
                        <polygon id="Fill-116" fill="#E96600" points="91.5075333 46.8489445 95.2202 50.7305536 78.0942 49.3309445 78.1048667 46.3332991"></polygon>
                        <polygon id="Fill-118" fill="#FF9800" points="78.1051333 46.3330336 81.8824667 49.6153791 78.0938 49.3306791"></polygon>
                        <polygon id="Fill-120" fill="#FF9800" points="91.6331333 20.7489891 97.0524667 26.4396709 95.2204667 50.7307527 91.5078 46.8491436"></polygon>
                        <polygon id="Fill-122" fill="#FF9800" points="78.2425333 9.27763636 82.6338667 13.2017182 78.1745333 13.3152"></polygon>
                        <polygon id="Fill-124" fill="#FF9800" points="93.3532 10.8093755 97.1692 15.6612209 96.4058667 21.74743 93.3205333 17.2698755"></polygon>
                        <polygon id="Fill-126" fill="#FF9800" points="78.2054 19.2256782 82.4054 21.7202873 78.1940667 22.23726"></polygon>
                        <polygon id="Fill-128" fill="#FF9800" points="93.6533333 50.2182927 97.626 53.9957109 96.544 60.4482473 93.6213333 56.6549018"></polygon>
                        <polygon id="Fill-130" fill="#E96600" points="78.0726 55.2017373 81.2599333 58.0938645 96.5439333 60.4477827 93.6212667 56.6544373"></polygon>
                        <polygon id="Fill-132" fill="#FF9800" points="78.0726 55.2017373 81.2599333 58.0938645 81.2752667 65.2810464 78.0466 62.2037645"></polygon>
                        <polygon id="Fill-134" fill="#E96600" points="70.2978667 61.1430082 72.4652 63.7816264 81.2752 65.2814445 78.0465333 62.2034991"></polygon>
                        <polygon id="Fill-136" fill="#E96600" points="78.1735333 27.83417 78.1595333 31.6222064 82.8955333 31.3733427 82.9115333 27.4738155"></polygon>
                        <polygon id="Fill-138" fill="#E96600" points="78.1403333 36.9105918 78.1263333 40.6933191 82.8576667 40.70991 82.8736667 36.8163555"></polygon>
                        <polygon id="Fill-140" fill="#E96600" points="66.3376 28.7346582 70.3982667 28.4260673 70.3869333 32.0316036 66.3276 32.2452945"></polygon>
                        <polygon id="Fill-142" fill="#E96600" points="66.3148 37.1455191 70.3714667 37.0652191 70.3601333 40.66611 66.3048 40.65151"></polygon>
                        <polygon id="Fill-144" fill="#FF9800" points="66.3376 28.7346582 70.3869333 32.0316036 66.3276 32.2452945"></polygon>
                        <polygon id="Fill-146" fill="#FF9800" points="78.1735333 27.83417 78.1595333 31.6222064 82.8955333 31.3733427"></polygon>
                        <polygon id="Fill-148" fill="#FF9800" points="78.1403333 36.9105918 78.1263333 40.6933191 82.8576667 40.70991"></polygon>
                        <polygon id="Fill-150" fill="#FF9800" points="66.3148 37.1455191 66.3048 40.65151 70.3601333 40.66611"></polygon>
                        <path d="M82.8734,36.8162891 L78.1400667,36.9105255 L78.1260667,40.6932527 L82.8580667,40.7098436 L82.8734,36.8162891 Z M82.9120667,27.4736164 L78.1734,27.8339709 L78.1600667,31.6226709 L82.8954,31.3731436 L82.9120667,27.4736164 Z M70.3714,37.0651527 L66.3147333,37.1454527 L66.3047333,40.6514436 L70.3600667,40.6660436 L70.3714,37.0651527 Z M70.3980667,28.4259345 L66.3374,28.7345255 L66.3280667,32.2451618 L70.3874,32.0321345 L70.3980667,28.4259345 Z M78.0727333,55.2016709 L78.0467333,62.2036982 L70.2980667,61.1432073 L70.3180667,54.47698 L58.3947333,53.3627345 L58.4054,48.2076073 L70.3354,48.8878345 L70.3440667,46.0341982 L59.9260667,45.6333618 L59.9720667,24.25498 L70.4140667,23.0989255 L70.4227333,20.23268 L58.7160667,21.7470982 L58.7260667,16.5548073 L70.4400667,14.61168 L70.4514,10.7652436 L78.2427333,9.27737091 L78.2274,13.3189164 L93.3534,10.8097073 L93.3207333,17.2702073 L78.2054,19.2259436 L78.1940667,22.2368618 L91.6334,20.7489891 L91.5074,46.8491436 L78.1054,46.3328345 L78.0940667,49.33048 L93.6534,50.2184255 L93.6214,56.6550345 L78.0727333,55.2016709 Z" id="Fill-152" fill="#153FD9"></path>
                    </g>
                </g>
            </g>
        </g>
    </g>
</svg>