<svg height="54" viewBox="0 0 180 54" width="180" xmlns="http://www.w3.org/2000/svg" xmlns:xlink="http://www.w3.org/1999/xlink"><mask id="a" fill="#fff"><path d="m0 53.890538h179.450093v-53.890538h-179.450093z" fill="#fff" fill-rule="evenodd"/></mask><g fill="#fff" fill-rule="evenodd"><path d="m21.5530241 35.6542115-5.5833024-14.3395176h2.6779221v.1365491l-.2178108.2244898c-.0371057.0404453-.0660482.0883117-.0849721.1465678-.0181819.0589981-.0282004.1269016-.0282004.2063079 0 .064193.0051948.1265306.0141002.1844156.0100185.0586271.0241187.1176253.0423005.1766234l3.3302412 8.5654916 4.47718-9.8849721 4.4946196 9.7205937 3.1992579-8.3910947c.0181818-.0593692.0330241-.1191094.0419295-.1814471.0092765-.0612245.0141002-.1254174.0141002-.1896104 0-.0794063-.0089054-.1473098-.0282004-.2063079-.0189239-.0582561-.0471243-.1061225-.0849721-.1465678l-.2077922-.2244898v-.1365491h2.6300556l-5.4604824 14.3395176-4.6359925-10.4029685z"/><path d="m26.9362523.82011132c0 .45343228-.3562152.8200371-.7955473.8200371-.4378479 0-.7948052-.36660482-.7948052-.8200371s.3569573-.82003711.7948052-.82003711c.4393321 0 .7955473.36660483.7955473.82003711"/><path d="m35.9760668 4.41799629c0 .45343228-.3558442.82003711-.7951763.82003711-.438961 0-.7951762-.36660483-.7951762-.82003711s.3562152-.82003711.7951762-.82003711c.4393321 0 .7951763.36660483.7951763.82003711"/><path d="m44.8220037 8.49855288c0 .45343228-.3562152.8200371-.7955473.8200371-.43859 0-.7948052-.36660482-.7948052-.8200371 0-.45343229.3562152-.82003711.7948052-.82003711.4393321 0 .7955473.36660482.7955473.82003711"/><path d="m48.7492764 17.6409276c0 .4534323-.3558441.8204082-.7951762.8204082-.4389611 0-.7948052-.3669759-.7948052-.8204082 0-.4530612.3558441-.8200371.7948052-.8200371.4393321 0 .7951762.3669759.7951762.8200371"/><path d="m52.2090909 26.9822263c0 .4534323-.3558441.8204082-.7951762.8204082-.4389611 0-.7951763-.3669759-.7951763-.8204082 0-.4530612.3562152-.8200371.7951763-.8200371.4393321 0 .7951762.3669759.7951762.8200371"/><path d="m48.7231911 36.3137291c0 .4534323-.3558442.8204082-.7951763.8204082-.438961 0-.7948052-.3669759-.7948052-.8204082 0-.4530612.3558442-.8200371.7948052-.8200371.4393321 0 .7951763.3669759.7951763.8200371"/><path d="m44.770538 45.4448609c0 .4534322-.3562152.8204081-.7955473.8204081-.43859 0-.7948052-.3669759-.7948052-.8204081 0-.4530613.3562152-.8200372.7948052-.8200372.4393321 0 .7955473.3669759.7955473.8200372"/><path d="m35.9133581 49.49859c0 .4534323-.3558442.8204081-.7951763.8204081-.438961 0-.7948052-.3669758-.7948052-.8204081 0-.4530612.3558442-.8200371.7948052-.8200371.4393321 0 .7951763.3669759.7951763.8200371"/><path d="m42.1597403 11.2394434c0 .4534323-.3562153.8200371-.7955474.8200371-.4385899 0-.7948051-.3666048-.7948051-.8200371s.3562152-.8200371.7948051-.8200371c.4393321 0 .7955474.3666048.7955474.8200371"/><path d="m45.0173284 17.4735065c0 .4534323-.3562152.8204082-.7955473.8204082-.43859 0-.793692-.3669759-.793692-.8204082 0-.4530612.355102-.8200371.793692-.8200371.4393321 0 .7955473.3669759.7955473.8200371"/><path d="m46.2171058 20.4756586c0 .4534323-.3558442.8200371-.7951763.8200371-.438961 0-.7948052-.3666048-.7948052-.8200371s.3558442-.8200371.7948052-.8200371c.4393321 0 .7951763.3666048.7951763.8200371"/><path d="m48.4488683 26.9771429c0 .4534322-.3558442.8200371-.7951763.8200371-.438961 0-.793692-.3666049-.793692-.8200371 0-.4534323.354731-.8200371.793692-.8200371.4393321 0 .7951763.3666048.7951763.8200371"/><path d="m46.1989981 33.4713544c0 .4534322-.3558441.8200371-.7951762.8200371-.438961 0-.7951763-.3666049-.7951763-.8200371 0-.4534323.3562153-.8200371.7951763-.8200371.4393321 0 .7951762.3666048.7951762.8200371"/><path d="m44.990872 36.4699072c0 .4534323-.3562152.8204082-.7955473.8204082-.4389611 0-.7948052-.3669759-.7948052-.8204082 0-.4534322.3558441-.8200371.7948052-.8200371.4393321 0 .7955473.3666049.7955473.8200371"/><path d="m42.1151763 42.6963636c0 .4530613-.3558442.8200371-.7951763.8200371-.438961 0-.7948052-.3669758-.7948052-.8200371 0-.4534322.3558442-.8204081.7948052-.8204081.4393321 0 .7951763.3669759.7951763.8204081"/><path d="m36.0753618 45.6463451c0 .4534323-.3558442.8200371-.7951763.8200371-.438961 0-.7951762-.3666048-.7951762-.8200371s.3562152-.8200371.7951762-.8200371c.4393321 0 .7951763.3666048.7951763.8200371"/><path d="m33.1670501 46.8845269c0 .4534323-.3558442.8204082-.7951763.8204082-.438961 0-.7951762-.3669759-.7951762-.8204082 0-.4530612.3562152-.8200371.7951762-.8200371.4393321 0 .7951763.3669759.7951763.8200371"/><path d="m33.2224861 7.02374768c0 .45343228-.3558442.82040816-.7951763.82040816-.438961 0-.7948052-.36697588-.7948052-.82040816 0-.45306122.3558442-.8200371.7948052-.8200371.4393321 0 .7951763.36697588.7951763.8200371"/><path d="m36.1275325 8.2709833c0 .45306123-.3558442.82003711-.7951763.82003711-.438961 0-.7948052-.36697588-.7948052-.82003711 0-.45343228.3558442-.82040816.7948052-.82040816.4393321 0 .7951763.36697588.7951763.82040816"/><path d="m17.7243043 8.24382189c0 .45343228-.3558442.82003711-.7951763.82003711-.438961 0-.7951762-.36660483-.7951762-.82003711s.3562152-.8200371.7951762-.8200371c.4393321 0 .7951763.36660482.7951763.8200371"/><path d="m11.6844898 11.1938033c0 .4534323-.3558442.8204082-.7951763.8204082-.438961 0-.7951762-.3669759-.7951762-.8204082 0-.4530612.3562152-.8200371.7951762-.8200371.4393321 0 .7951763.3669759.7951763.8200371"/><path d="m9.02871985 8.44526902c0 .45306122-.35584415.8200371-.79517625.8200371-.43896104 0-.7948052-.36697588-.7948052-.8200371 0-.45343229.35584416-.82040817.7948052-.82040817.4393321 0 .79517625.36697588.79517625.82040817"/><path d="m5.07647495 17.5760297c0 .4534323-.35621521.8204081-.79554731.8204081-.43896104 0-.79480519-.3669758-.79480519-.8204081 0-.4530612.35584415-.8200371.79480519-.8200371.4393321 0 .79554731.3669759.79554731.8200371"/><path d="m8.80912801 17.4198516c0 .4534323-.35621521.8204081-.7955473.8204081-.43896104 0-.7948052-.3669758-.7948052-.8204081 0-.4530612.35584416-.8200371.7948052-.8200371.43933209 0 .7955473.3669759.7955473.8200371"/><path d="m7.6006679 20.4184045c0 .4534322-.35584415.8204081-.79517625.8204081-.43896104 0-.79480519-.3669759-.79480519-.8204081 0-.4530613.35584415-.8200372.79480519-.8200372.4393321 0 .79517625.3669759.79517625.8200372"/><path d="m5.35038961 26.912987c0 .4534323-.35584416.8200371-.79517625.8200371-.43896104 0-.7948052-.3666048-.7948052-.8200371s.35584416-.8200371.7948052-.8200371c.43933209 0 .79517625.3666048.79517625.8200371"/><path d="m1.59020408 26.9071985c0 .4530612-.35584415.8200371-.79517625.8200371-.43896104 0-.7948052-.3669759-.7948052-.8200371 0-.4534323.35584416-.8204081.7948052-.8204081.4393321 0 .79517625.3669758.79517625.8204081"/><path d="m5.05001855 36.2488683c0 .4534323-.35584415.8204081-.79517625.8204081-.43896104 0-.79480519-.3669758-.79480519-.8204081 0-.4530612.35584415-.8200371.79480519-.8200371.4393321 0 .79517625.3669759.79517625.8200371"/><path d="m8.97729128 45.391577c0 .4534323-.35584416.8200371-.79517625.8200371-.43896104 0-.7948052-.3666048-.7948052-.8200371s.35584416-.8200371.7948052-.8200371c.43933209 0 .79517625.3666048.79517625.8200371"/><path d="m17.8235993 49.4717625c0 .4534323-.3562153.8204082-.7955474.8204082-.438961 0-.7948051-.3669759-.7948051-.8204082 0-.4530612.3558441-.8200371.7948051-.8200371.4393321 0 .7955474.3669759.7955474.8200371"/><path d="m26.8634137 53.0703896c0 .4534323-.3558441.8200371-.7951762.8200371-.4389611 0-.7948052-.3666048-.7948052-.8200371s.3558441-.8200371.7948052-.8200371c.4393321 0 .7951762.3666048.7951762.8200371"/><path d="m7.5825603 33.4141002c0 .4530612-.35584416.8200371-.79517626.8200371-.43896103 0-.79480519-.3669759-.79480519-.8200371 0-.4534323.35584416-.8204082.79480519-.8204082.4393321 0 .79517626.3669759.79517626.8204082"/><path d="m8.78233766 36.4162894c0 .4530612-.35584415.8200371-.79517625.8200371-.43896104 0-.79480519-.3669759-.79480519-.8200371 0-.4534323.35584415-.8204081.79480519-.8204081.4393321 0 .79517625.3669758.79517625.8204081"/><path d="m11.6402597 42.6503154c0 .4534323-.3562152.8200371-.7955473.8200371-.43859 0-.7948052-.3666048-.7948052-.8200371s.3562152-.8200371.7948052-.8200371c.4393321 0 .7955473.3666048.7955473.8200371"/><path d="m17.6721336 45.6191466c0 .4530612-.3558442.8200371-.7951763.8200371-.438961 0-.7948052-.3669759-.7948052-.8200371 0-.4534323.3558442-.8204082.7948052-.8204082.4393321 0 .7951763.3669759.7951763.8204082"/><path d="m20.5768089 46.8660482c0 .4534323-.3558442.8204082-.7951762.8204082-.4389611 0-.7948052-.3669759-.7948052-.8204082 0-.4530612.3558441-.8200371.7948052-.8200371.439332 0 .7951762.3669759.7951762.8200371"/><path d="m26.8684972 49.188757c0 .4534322-.3558441.8200371-.7951762.8200371-.4389611 0-.7948052-.3666049-.7948052-.8200371 0-.4534323.3558441-.8200371.7948052-.8200371.4393321 0 .7951762.3666048.7951762.8200371"/><path d="m20.632616 7.00526902c0 .45343228-.3558442.8200371-.7951763.8200371-.438961 0-.7948052-.36660482-.7948052-.8200371 0-.45343229.3558442-.82003711.7948052-.82003711.4393321 0 .7951763.36660482.7951763.82003711"/><path d="m17.8862709 4.39153989c0 .45306122-.3558442.8200371-.7951763.8200371-.438961 0-.7948052-.36697588-.7948052-.8200371 0-.45343228.3558442-.82040816.7948052-.82040816.4393321 0 .7951763.36697588.7951763.82040816"/><path d="m26.9304267 4.70174397c0 .45343228-.3558441.82003711-.7951762.82003711-.4389611 0-.7948052-.36660483-.7948052-.82003711s.3558441-.82003711.7948052-.82003711c.4393321 0 .7951762.36660483.7951762.82003711"/><path d="m27.1376994 8.02601113c0 .57476809-.4512059 1.04007421-1.006679 1.04007421-.5565863 0-1.0077922-.46530612-1.0077922-1.04007421 0-.57439703.4512059-1.03970315 1.0077922-1.03970315.5554731 0 1.006679.46530612 1.006679 1.03970315"/><path d="m30.9164007 9.37001855c0 .57476809-.4500927 1.04007425-1.006679 1.04007425s-1.0077922-.46530616-1.0077922-1.04007425c0-.57439703.4512059-1.03970315 1.0077922-1.03970315s1.006679.46530612 1.006679 1.03970315"/><path d="m36.5029314 11.7684972c0 .574397-.4500928 1.0397032-1.0066791 1.0397032-.5562152 0-1.0074211-.4653062-1.0074211-1.0397032 0-.5747681.4512059-1.0400742 1.0074211-1.0400742.5565863 0 1.0066791.4653061 1.0066791 1.0400742"/><path d="m40.0906494 13.5860853c0 .5747681-.451577 1.0400743-1.0070501 1.0400743-.5562153 0-1.0074212-.4653062-1.0074212-1.0400743 0-.574397.4512059-1.0397031 1.0074212-1.0397031.5554731 0 1.0070501.4653061 1.0070501 1.0397031"/><path d="m41.8412245 17.2945083c0 .5743971-.4500928 1.0397032-1.006679 1.0397032-.5562153 0-1.0074212-.4653061-1.0074212-1.0397032 0-.574768.4512059-1.0400742 1.0074212-1.0400742.5565862 0 1.006679.4653062 1.006679 1.0400742"/><path d="m44.1490909 23.0679777c0 .5747681-.4512059 1.0400742-1.006679 1.0400742-.5562152 0-1.0074212-.4653061-1.0074212-1.0400742 0-.574397.451206-1.0397031 1.0074212-1.0397031.5554731 0 1.006679.4653061 1.006679 1.0397031"/><path d="m45.4401855 26.9724304c0 .5743971-.4512059 1.0397032-1.006679 1.0397032-.5562152 0-1.0074212-.4653061-1.0074212-1.0397032 0-.5747681.451206-1.0400742 1.0074212-1.0400742.5554731 0 1.006679.4653061 1.006679 1.0400742"/><path d="m44.137885 30.8721707c0 .5747681-.4504638 1.0400742-1.0070501 1.0400742-.5562152 0-1.0074212-.4653061-1.0074212-1.0400742 0-.574397.451206-1.0397032 1.0074212-1.0397032.5565863 0 1.0070501.4653062 1.0070501 1.0397032"/><path d="m41.814397 36.6391095c0 .5747681-.4512059 1.0397031-1.006679 1.0397031-.5562152 0-1.0074212-.464935-1.0074212-1.0397031 0-.5743971.451206-1.0397032 1.0074212-1.0397032.5554731 0 1.006679.4653061 1.006679 1.0397032"/><path d="m40.053692 40.3420779c0 .5747681-.4512059 1.0397032-1.006679 1.0397032-.5562152 0-1.0074212-.4649351-1.0074212-1.0397032s.451206-1.0397031 1.0074212-1.0397031c.5554731 0 1.006679.464935 1.006679 1.0397031"/><path d="m36.4608905 42.1495362c0 .574397-.4512059 1.0397031-1.006679 1.0397031-.5562152 0-1.0077922-.4653061-1.0077922-1.0397031 0-.5747681.451577-1.0397032 1.0077922-1.0397032.5554731 0 1.006679.4649351 1.006679 1.0397032"/><path d="m30.8674954 44.5313544c0 .574397-.451206 1.0397031-1.0066791 1.0397031-.5565862 0-1.0077922-.4653061-1.0077922-1.0397031 0-.5747681.451206-1.0397032 1.0077922-1.0397032.5554731 0 1.0066791.4649351 1.0066791 1.0397032"/><path d="m27.0855288 45.8637477c0 .574397-.4504639 1.0397031-1.0066791 1.0397031-.5565862 0-1.0077922-.4653061-1.0077922-1.0397031 0-.5747681.451206-1.0397032 1.0077922-1.0397032.5562152 0 1.0066791.4649351 1.0066791 1.0397032"/><path d="m23.3068275 44.5194063c0 .5747681-.451206 1.0400742-1.0066791 1.0400742-.5562152 0-1.0074211-.4653061-1.0074211-1.0400742 0-.574397.4512059-1.0397031 1.0074211-1.0397031.5554731 0 1.0066791.4653061 1.0066791 1.0397031"/><path d="m17.720334 42.1216327c0 .574768-.451206 1.0397031-1.0066791 1.0397031-.5565863 0-1.0077922-.4649351-1.0077922-1.0397031 0-.5747681.4512059-1.0397032 1.0077922-1.0397032.5554731 0 1.0066791.4649351 1.0066791 1.0397032"/><path d="m14.1329499 40.3036735c0 .574397-.4504638 1.0397031-1.006679 1.0397031-.5565863 0-1.0077922-.4653061-1.0077922-1.0397031 0-.5736549.4512059-1.0400742 1.0077922-1.0400742.5562152 0 1.006679.4664193 1.006679 1.0400742"/><path d="m12.3820037 36.5952876c0 .5747681-.4512059 1.0400742-1.006679 1.0400742-.5565863 0-1.0077922-.4653061-1.0077922-1.0400742 0-.5743971.4512059-1.0397032 1.0077922-1.0397032.5554731 0 1.006679.4653061 1.006679 1.0397032"/><path d="m10.0745083 30.8217811c0 .574397-.45046377 1.0397031-1.00667899 1.0397031-.55658627 0-1.0077922-.4653061-1.0077922-1.0397031 0-.5747681.45120593-1.0400742 1.0077922-1.0400742.55621522 0 1.00667899.4653061 1.00667899 1.0400742"/><path d="m8.78341373 26.9176994c0 .5743971-.45120594 1.0397032-1.00667904 1.0397032-.55621521 0-1.0077922-.4653061-1.0077922-1.0397032 0-.574768.45157699-1.0397031 1.0077922-1.0397031.5554731 0 1.00667904.4649351 1.00667904 1.0397031"/><path d="m23.3561039 9.35877551c0 .57439703-.4504638 1.03970319-1.006679 1.03970319-.5565863 0-1.0077922-.46530616-1.0077922-1.03970319 0-.57476809.4512059-1.04007421 1.0077922-1.04007421.5562152 0 1.006679.46530612 1.006679 1.04007421"/><path d="m17.7627087 11.7405937c0 .5736549-.4512059 1.0397031-1.006679 1.0397031-.5565863 0-1.0074212-.4660482-1.0074212-1.0397031 0-.574397.4508349-1.0397032 1.0074212-1.0397032.5554731 0 1.006679.4653062 1.006679 1.0397032"/><path d="m14.1699072 13.5476809c0 .5747681-.4512059 1.0397031-1.006679 1.0397031-.5565863 0-1.0077922-.464935-1.0077922-1.0397031 0-.574397.4512059-1.0397032 1.0077922-1.0397032.5554731 0 1.006679.4653062 1.006679 1.0397032"/><path d="m12.4088312 17.2510204c0 .574397-.451206 1.0397032-1.0066791 1.0397032-.5562152 0-1.0074211-.4653062-1.0074211-1.0397032 0-.5747681.4512059-1.0397031 1.0074211-1.0397031.5554731 0 1.0066791.464935 1.0066791 1.0397031"/><path d="m10.0857514 23.0176252c0 .5743971-.45120595 1.0397032-1.00667904 1.0397032-.55621522 0-1.00779221-.4653061-1.00779221-1.0397032 0-.5747681.45157699-1.0400742 1.00779221-1.0400742.55547309 0 1.00667904.4653061 1.00667904 1.0400742"/><path d="m27.7164007 11.6449351c0 .9061224-.7116883 1.6411873-1.5899814 1.6411873-.87718 0-1.5892393-.7350649-1.5892393-1.6411873 0-.9064935.7120593-1.6415585 1.5892393-1.6415585.8782931 0 1.5899814.735065 1.5899814 1.6415585"/><path d="m17.2289425 16.1106494c0 .9064935-.7120594 1.6415584-1.5903525 1.6415584-.87718 0-1.5888683-.7350649-1.5888683-1.6415584 0-.9061225.7116883-1.6411874 1.5888683-1.6411874.8782931 0 1.5903525.7350649 1.5903525 1.6411874"/><path d="m12.872282 26.9227829c0 .9061225-.7116883 1.6411874-1.5899814 1.6411874-.87718 0-1.58923938-.7350649-1.58923938-1.6411874 0-.9064935.71205938-1.6415584 1.58923938-1.6415584.8782931 0 1.5899814.7350649 1.5899814 1.6415584"/><path d="m38.1911688 16.1421892c0 .9061225-.7120593 1.6415585-1.5903525 1.6415585-.8771799 0-1.5888682-.735436-1.5888682-1.6415585 0-.9061224.7116883-1.6411873 1.5888682-1.6411873.8782932 0 1.5903525.7350649 1.5903525 1.6411873"/><path d="m42.5170315 26.9669759c0 .9061224-.7116883 1.6415584-1.5899814 1.6415584-.87718 0-1.5892393-.735436-1.5892393-1.6415584 0-.9061225.7120593-1.6411874 1.5892393-1.6411874.8782931 0 1.5899814.7350649 1.5899814 1.6411874"/><path d="m38.1607421 37.7791095c0 .9061224-.7120594 1.6411873-1.5899814 1.6411873-.8782932 0-1.5892394-.7350649-1.5892394-1.6411873 0-.9061225.7109462-1.6415585 1.5892394-1.6415585.877922 0 1.5899814.735436 1.5899814 1.6415585"/><path d="m27.6732839 42.2448609c0 .9061224-.7120594 1.6411873-1.5892394 1.6411873-.8782931 0-1.5899814-.7350649-1.5899814-1.6411873 0-.9064936.7116883-1.6415585 1.5899814-1.6415585.87718 0 1.5892394.7350649 1.5892394 1.6415585"/><path d="m17.1985158 37.7479406c0 .9061225-.7120594 1.6415585-1.5899815 1.6415585-.8771799 0-1.5892393-.735436-1.5892393-1.6415585 0-.9061224.7120594-1.6411874 1.5892393-1.6411874.8779221 0 1.5899815.735065 1.5899815 1.6411874"/><path d="m107.98256 25.2133581h7.116512v-2.3202227h-7.116512zm-9.6111314-4.1105752h6.9896104v-2.4426716h-6.9896104zm0 4.1102041h6.9896104v-2.3202226h-6.9896104zm9.6111314-4.1102041h7.116512v-2.4426716h-7.116512zm12.053062 10.9525047c-3.597032-1.1432282-5.964008-2.4586271-7.915399-4.3985158l-.238961-.2378479h5.806679v-9.7599258c0-.5083487.401855-.9246753.90538-.9502782v-.283859h-23.6248609v.2927643c.4593692.0675325.8133581.4638219.8133581.9413729v9.7614101l5.6423008-.0014843-.267162.2423006c-1.9565859 1.7721707-4.3565859 3.0270872-8.0244895 4.1962894-.1658627.0538034-.3458256.0148423-.4756957-.0949907l-.251577.1658627 1.8374768 2.76141.2523191-.1658627c-.0248608-.0816326-.0256029-.1699443-.000371-.2549165.0385899-.1339518.135436-.2400742.2641929-.2912802 2.5131726-1.0211502 4.1298701-1.9899814 5.7840444-3.1298701l.035622-.0244898h.296104l.005936.1324676c.174026 3.7977736-2.3792203 4.8682745-5.009276 5.6397031-.1729128.0508349-.3402597.0311688-.4686456-.051577l-.2333952.1966605 2.1525047 2.5992579.2382189-.2011132c-.0341373-.0994434-.0356215-.2103896-.0018553-.3102041.0434137-.1261595.1372913-.2200371.2589981-.2575139 3.1996294-.9588126 5.1703154-2.4408163 5.7792204-7.1784787.035251-.2782931.221151-.4923933.46308-.5525046v-.2994434h-3.08794l.324675-.2493507c1.071985-.8241187 2.060111-1.7732838 2.936549-2.8222634l.041559-.0500928h4.798886l.041559.0545455c.788497 1.032282 1.697217 1.9632653 2.777736 2.8471243l.302041.2467532h-2.475325v.2949908c.292023.0589981.496104.3016697.496104.5910946v6.5298701c0 .4397032-.346567.8003711-.781447.8237477v.2853432h4.2141v-.2957328c-.388868-.0664193-.686085-.4059369-.686085-.8133581v-6.8608534l.218553.1521336c1.814842 1.2630797 3.387384 2.0935065 5.608163 2.9625232.125789.0493506.224861.1495361.272727.2745825.030427.0797774.037848.1654917.023748.2482375l.270501.1365492 1.429685-2.8248609-.271614-.1372913c-.122449.1235622-.307978.1751392-.477922.1209648z" mask="url(#a)"/><path d="m175.693358 23.4774397.156215-.2797774.097959.3053804-.132838.0426716.138775-.0233766c.165492.5183673.353247 1.1057514.516512 1.7254174l.037477.1428571-.144712.0289425c-.65603.1302412-1.283117.257885-1.883117.3881262l-.353247.0768089.21039-.2935065c.54731-.7651206.978107-1.4371057 1.356586-2.1135436zm-3.980705-1.0059369.624119-.1332097c.681261-.1450835 1.324304-.2820037 1.942486-.4330241l.297588-.0730983-.141002.2723562c-.948052 1.8274583-1.938775 3.2875696-3.027087 4.4604824l.404824 1.3580705c1.707606-.3473099 3.363636-.722449 4.924675-1.1150279l.139147-.0348794.030797.1398887c.099815.451577.200371.9243043.299444 1.418924l1.666419-.3929499c-.426716-1.9551021-.942486-3.7821893-1.533581-5.4345084l-1.329128.3799629.144713-.2842301c.250835-.4946196.469388-.8886827.680519-1.2697588.307607-.555102.625974-1.129499 1.065306-2.0471243.111689-.232653.333581-.3695733.558442-.3528757l.072356-.2141002-2.528386-.8597402-.069387.2040816c.104638.0560297.187384.1428572.239332.251206.064935.1361781.071985.2886827.020037.4300556-.230056.6263451-.702041 1.3035251-.87347 1.3332097l-1.784044.4920222.130612-.2745825c.16846-.3536178.356586-.683488.555844-1.031911.312802-.5480519.667533-1.1692022 1.066048-2.0853432.120965-.27718.420038-.4155844.694991-.3228201l.087941.0296847.066419-.1959184-3.005566-1.0222635-.066048.1966605.108349.0371058c.285343.0975881.441929.4103896.349536.697217-.779592 2.4326531-1.50872 3.8998145-2.16846 4.3658627z" mask="url(#a)"/><path d="m165.635622 24.8092764h3.148794v-2.4155844h-3.148794zm0-3.6315399h3.148794v-2.4437847h-3.148794zm13.581818 14.6293136.232653-.4827458-.197032-.0949908c-.218924.3168832-.619295.4627088-.981447.3410019-3.745826-1.2474954-5.017069-2.5376623-6.781076-4.5406308l-.203339-.2311688h6.98961c.188126 0 .348423.1217068.406308.290538h.231911v-2.7076067h-.208906c-.008163.2293136-.197773.412987-.429313.412987h-9.962894v-2.2812616h2.567718v-8.7565862c0-.2738405.214842-.4983303.485343-.5146568v-.2092764h-3.743228l.107606-.2040817c.211503-.4014842.404453-.8612245.589982-1.4059369.08423-.2482375.330241-.4096475.598887-.3784787l.028571.0025974.02115-.2074211-3.156957-.3324675-.024119.2244898c.115399.0423005.214843.1205937.283488.2256029.093878.1432282.117997.3187384.066791.4823748-.186642.5884972-.365863 1.0686456-.562524 1.5105751l-.037105.0827459h-2.028572v9.471243h2.513544v2.290538h-10.037106c-.231911 0-.421521-.1836734-.429313-.412987h-.207793v2.7076067h.230427c.058256-.1688312.218182-.290538.406679-.290538h7.34397l-.208905.232282c-2.104638 2.3398887-3.38256 3.3269016-6.797403 4.5595547-.431168.1562152-.922449.0133581-1.218181-.3387755l-.181819.1168831 1.958071 3.0404453.191095-.1235622c-.028572-.1001855-.025603-.2085343.011502-.3079777.048609-.1306123.149908-.2270872.278293-.2649351 3.036364-.8935065 5.741002-3.1350649 8.268646-6.8530612l.04193-.0608534h.349907v6.3855287c0 .3948052-.286828.7239332-.66308.7899815v.219295h3.615584v-.219295c-.376252-.0660483-.663079-.3951763-.663079-.7899815v-6.3855287h.346196l.04193.0571428c1.934694 2.632282 4.654545 5.787013 8.549536 6.8233767.171058.0448979.308349.1625231.3859.3309833.068274.1476808.082004.3179962.041187.4753246l.198516.0957329 1.348794-2.7680891z" mask="url(#a)"/><path d="m161.945009 28.1233024 1.566976-.8523191-.17885-.7669759h.002227l-.099073-.400371c-.412244-1.6693878-.834137-3.0853433-1.287569-4.322449l-1.570687.4953618.063451.1647495c.167347.43859.31911.8912801.479035 1.3703154l.201114.5992579-.153247.032282c-.32987.0690167-.659369.1332096-.986271.1974026-.404824.0794063-.805566.1576994-1.198516.2434137l-.372541.0812616.233024-.3020408c.510204-.6623377 1.031911-1.4181818 1.549165-2.2456401l.243042-.4115028c.249351-.4434137.486457-.8378478.718739-1.2252319.444898-.7413729.864935-1.4419295 1.325788-2.3985157.125418-.2597403.390724-.393321.646754-.3372913l.068645-.2011132-2.52987-.8589981-.072356.2141001c.088683.0571429.159555.1384045.205566.2363637.065677.1406308.071243.2979592.015584.4426716-.186642.4827458-.643785 1.135436-.879035 1.2152134l.001484.0048237c-.602226.154731-1.23154.3109462-1.889796.4675325l-.323562.0768089.172542-.2846011c.228571-.3781076.44935-.7105752.704267-1.0961039.356215-.5380334.760297-1.148423 1.304638-2.0612245.15436-.2627087.433395-.3788497.693136-.290167l.127272.0434137.067162-.1974026-3.005195-1.0215213-.067533.1966605.045641.0152133c.148052.0504639.269387.1606679.33358.303154.064935.1424861.067533.3076067.008164.4519481-1.002227 2.4356215-1.925418 3.9050093-2.745826 4.3717996l.355102 1.5035251c1.159926-.2122449 2.209276-.4463822 3.087941-.6486086l.300556-.0690167-.146939.270872c-.997031 1.8408163-2.050092 3.3187384-3.21781 4.5142857l.381818 1.3576995c1.775139-.3131726 3.502783-.670501 5.276809-1.0916512l.143228-.0341373z" mask="url(#a)"/><path d="m163.012876 17.0325046v.2085344c.131354.0051948.251206.0593692.339888.1447124l.120594-.3532468z" mask="url(#a)"/><path d="m141.156586 21.5057514h4.43154v-3.2374768h-4.43154zm-2.042671-3.9647495v5.6564007h8.546196v-5.6564007c0-.4656772.359926-.8486086.816327-.8853433v-.2115028h-10.11206v.219295c.424119.0671614.749537.4348794.749537.8775511z" mask="url(#a)"/><path d="m145.72538 29.6633024h-4.113543l.020779-.1573284c.080519-.6107606.162152-2.4230055.162894-2.4415584l.006308-.1324675h3.923562zm3.588498 2.2489796h.230055v-2.7076067h-.223747c-.062338.2627087-.298702.4586271-.579963.4586271h-.834509v-3.8163265c0-.329128.268275-.5966605.597774-.5966605h.140631v-.2085343l-11.611503-.0107607v-5.9925788c0-.4196661.313544-.767347.718367-.8218924v-.2144713h-3.615584v.218924c.390352.0664193.688683.4077922.688683.8174397v7.8935065h4.742115l-.006308.1450834c-.003711.0742115-.083859 1.8207793-.194434 2.470501l-.019667.1157699h-5.095361c-.246011 0-.453433-.1673469-.515028-.3940631h-.225603v2.7072357h.213729c.035622-.2040817.2141-.3599258.428943-.3599258h4.810018l-.0141.1517625c-.215213 2.3673469-1.69833 4.0456401-4.17551 4.7265306-.323191.0883117-.62449-.0022263-.787755-.2374768l-.105752-.154731-.179592.12282 1.706865 2.9692023.174397-.1198516c-.063822-.1554731-.069759-.3350649-.012616-.4946197.065306-.1814471.204082-.3150278.381076-.3666048 2.970687-.8604824 4.869017-3.16141 5.345826-6.4779221l.016697-.1191094h7.589611c.191094 0 .353989.1239332.412245.2957328z" mask="url(#a)"/><path d="m129.706494 29.9343599-.071244.1925789-.152504-.1376624c-.35065-.316141-.721336-.6330241-1.106123-.961781-.244527-.2092765-.494619-.4233767-.749536-.6452691l-.067903-.0589981.23525-.7692022c.438961-1.4289425.893136-2.9061225 1.317996-5.1012987l.021893-.1128015h2.17551l-.009276.148423c-.201856 3.1517625-.782932 5.2564007-1.594063 7.4460111zm4.55473 3.9217069c-.111688.0786642-.238218.1179963-.384786.1209647-.187013-.0011131-.365863-.0816326-.49128-.2211502-.596661-.6586271-1.266049-1.3395177-2.046754-2.0812616l-.069016-.0656772.037106-.0886828c1.309833-3.142115 1.935807-6.1428571 2.092764-10.032653v-1.2296846h-3.903154l.117625-.767718c.141373-.9183674.289425-1.8827458.432282-2.8827458.055288-.3840446.37885-.6667904.758071-.6812616l.020408-.2129871-3.601113-.3350649-.019666.2189239c.161781.0441559.304638.1380334.411131.2723563.135807.1706864.194063.3836734.165121.6-.201113 1.5090909-.363636 2.6411873-.526531 3.6708719l-.018553.1176253h-1.654916c-.209277 0-.381076-.1599258-.400742-.3632653h-.21744v2.7076067h.240445c.057143-.1528757.204824-.2623377.377737-.2623377h1.323933l-.031911.1654916c-.440816 2.27718-.896475 3.9213358-1.424119 5.825232l-.166604.6025974c1.255658 1.1176252 2.369202 2.1751391 3.353246 3.110204l.077551.0734694-.050463.0938776c-.774026 1.4285714-1.780334 2.7558441-2.991095 3.9443413-.158442.1554731-.365121.2378479-.590353.2267162-.173654-.0070501-.340259-.0705009-.47384-.1788497l-.166976.1432282 2.362152 2.7384044.162152-.1395176c-.207792-.31577-.169944-.7402597.10167-1.0089054 1.233766-1.2200371 2.276438-2.5888683 3.098701-4.0690167l.091652-.1651206.130612.1361781c.507978.5294991.997774 1.0682746 1.541002 1.6957329.222263.2545454.216697.6341373-.012245.8834879l.141744.1306123 2.366976-2.541744z" mask="url(#a)"/><path d="m149.404416 36.202115c-.21373.0374768-.428201-.0111317-.605195-.135807-1.753247-1.2456401-3.682004-2.3317254-5.733952-3.2300557l-1.146568 1.5847867c1.887941.8489796 3.745455 1.9751391 5.673099 3.4397031.309462.2341373.402968.6482375.241558.9907236l.180705.1257885 2.070501-2.9647496-.171058-.1191094c-.125788.1643785-.305009.2730983-.50909.3087198" mask="url(#a)"/><path d="m76.2567718 30.4508349h5.1146568v-5.6463822h-5.1146568zm11.4356215-8.0916512h-3.6682746v-4.7606679c0-.451577.3376624-.8259741.773655-.8831169v-.2916512h-4.2144713v.2897959c.4426716.0519481.787013.4289425.787013.8849722v4.7606679h-5.1135436v-4.7606679c0-.4437848.3265306-.812616.7517625-.8797774v-.2949907h-4.1829313v.2938775c.4478664.064193.7773655.4348794.7773655.8808906v4.7606679h-5.9499073v-4.4808906c0-.4909091.399629-.890538.8905381-.890538h.0345083v-.2827458h-4.5235621v.2853432c.4575139.0374768.8178107.4215213.8178107.8879406v4.4808906h-2.0742115c-.2589981 0-.4768089-.1766234-.5387755-.4155844h-.2987013v3.2846011h.296846c.0593692-.2430427.2790353-.4237477.5406308-.4237477h2.0742115v13.857885h21.7027829c.2742115 0 .5046383.1896104.567347.4448979h.3157699v-3.5588126h-.3068645c-.0445269.2779221-.2860854.490538-.5762524.490538h-18.9220779v-11.2345083h5.9499073v8.1213358h10.4211502v-8.1213358h3.6682746c.2612245 0 .4801484.180705.5395176.4237477h.296475v-3.2846011h-.2987013c-.0619666.238961-.2790352.4155844-.5372913.4155844z" mask="url(#a)"/></g></svg>